<?xml version="1.0" standalone="no"?>
<!DOCTYPE svg PUBLIC "-//W3C//DTD SVG 20010904//EN"
 "http://www.w3.org/TR/2001/REC-SVG-20010904/DTD/svg10.dtd">
<svg version="1.0" xmlns="http://www.w3.org/2000/svg"
 width="100%" height="100%" viewBox="-5 0 600 185"
 preserveAspectRatio="xMidYMid meet">
<g transform="translate(0.000000,268.000000) scale(0.100000,-0.100000)"
fill="#2a3a5c" stroke="none">
<path d="M4846 2603 c-5 -64 -10 -81 -29 -95 l-22 -18 35 0 35 0 2 95 c1 52
-1 95 -6 95 -4 0 -11 -35 -15 -77z"/>
<path d="M4866 2457 c3 -10 9 -15 12 -12 3 3 0 11 -7 18 -10 9 -11 8 -5 -6z"/>
<path d="M2568 2433 c7 -3 16 -2 19 1 4 3 -2 6 -13 5 -11 0 -14 -3 -6 -6z"/>
<path d="M4648 2433 c7 -3 16 -2 19 1 4 3 -2 6 -13 5 -11 0 -14 -3 -6 -6z"/>
<path d="M2425 2401 c-66 -3 -128 -11 -138 -17 -20 -12 277 -9 310 3 10 4 -11
-24 -47 -62 -85 -89 -111 -117 -134 -146 -11 -13 -53 -62 -93 -109 -130 -150
-154 -179 -198 -237 -23 -32 -56 -73 -73 -90 l-31 -33 -120 1 c-67 1 -121 4
-121 8 0 8 -106 8 -115 -1 -16 -15 81 -23 276 -22 206 1 279 7 279 23 0 14
-64 20 -72 7 -4 -6 -8 -8 -8 -5 0 4 -18 3 -40 -1 -22 -4 -40 -5 -40 -3 0 23
368 460 506 600 l51 52 600 1 601 0 -3 -62 c-2 -35 -6 -168 -10 -295 -4 -128
-11 -233 -16 -233 -5 0 -9 6 -9 13 0 6 -5 4 -11 -5 -11 -19 -39 -25 -39 -8 0
6 5 10 11 10 5 0 8 4 5 9 -3 5 1 11 9 15 12 4 14 30 13 141 -1 92 -5 129 -11
113 -5 -13 -7 -65 -4 -117 3 -71 2 -89 -7 -75 -6 10 -13 44 -17 74 l-6 55 -2
-62 c-1 -50 3 -67 18 -82 20 -20 20 -20 -8 -50 -30 -32 -44 -25 -36 16 2 10 9
95 15 188 12 178 17 221 26 212 9 -9 10 -107 2 -107 -5 0 -7 -19 -7 -42 2 -33
3 -36 6 -13 2 17 6 37 10 45 7 19 10 129 3 127 -3 -1 -16 8 -30 21 l-24 22
-497 0 -498 0 -47 -25 c-25 -14 -50 -22 -55 -19 -5 3 -8 2 -7 -3 2 -5 -15 -30
-36 -57 -35 -42 -41 -46 -52 -32 -11 15 -12 15 -18 1 -3 -9 -2 -13 3 -10 20
12 19 -13 -1 -31 -20 -18 -21 -18 -15 -1 4 11 3 16 -4 12 -6 -4 -8 -14 -4 -23
3 -8 2 -18 -2 -21 -5 -3 -21 -23 -37 -44 -17 -24 -33 -36 -43 -33 -8 4 -11 1
-7 -5 6 -11 -47 -84 -78 -107 -57 -41 -81 -86 -69 -128 4 -16 3 -38 -3 -50
-10 -21 -19 -22 -185 -29 -199 -9 -334 -3 -373 15 -26 12 -27 14 -13 46 13 32
13 33 -21 53 -38 23 -64 27 -64 11 0 -5 5 -10 12 -10 6 0 8 -3 5 -6 -10 -11
12 -44 30 -44 15 0 15 -12 -2 -52 -5 -13 -2 -18 10 -18 9 0 13 5 10 10 -3 6
-1 10 4 10 6 0 11 -4 11 -9 0 -5 15 -12 34 -15 19 -4 37 -14 40 -22 4 -11 13
-14 29 -10 20 6 137 14 137 9 0 -4 -44 -78 -50 -83 -3 -3 -5 -14 -6 -25 0 -11
-4 -35 -8 -52 -4 -19 -4 -33 2 -33 5 0 12 20 15 45 8 54 43 133 66 144 9 5 74
11 146 15 102 5 127 4 117 -6 -14 -14 -16 -48 -2 -48 6 0 10 10 10 23 0 26 17
47 37 47 10 0 11 -5 3 -19 -5 -11 -10 -28 -9 -38 0 -10 5 -4 10 13 5 17 19 36
31 42 l23 12 -24 -6 c-20 -5 -23 -3 -18 11 4 9 7 18 7 20 0 2 14 -4 31 -12 17
-9 27 -18 21 -22 -5 -3 15 -7 45 -8 61 -2 83 -15 83 -48 0 -32 -49 -49 -135
-48 -51 1 -62 -1 -40 -7 41 -11 167 -12 161 -1 -9 14 29 42 48 35 25 -10 19
-32 -11 -37 -17 -2 -9 -5 21 -6 l48 -1 -31 32 c-17 17 -31 37 -31 44 0 7 -6
15 -12 17 -8 4 -4 8 10 12 12 4 22 11 22 15 0 4 39 8 88 9 48 1 105 3 127 6
40 4 97 6 740 25 182 5 384 12 450 15 66 2 246 7 400 10 154 3 343 8 420 11
184 8 918 20 928 16 4 -2 4 -9 0 -15 -11 -18 -12 -36 -3 -42 5 -3 7 3 5 15 -5
27 12 35 24 12 8 -15 6 -23 -7 -36 -10 -8 -22 -12 -28 -8 -5 4 -6 3 -1 -3 10
-13 9 -27 -3 -20 -13 8 -3 -20 27 -71 29 -51 65 -153 57 -165 -3 -5 0 -9 6 -9
6 0 8 -4 5 -10 -3 -5 -2 -18 4 -27 5 -10 12 -35 15 -56 6 -39 25 -77 39 -77
18 0 25 -45 9 -62 -9 -11 -11 -18 -4 -18 7 0 12 5 12 12 0 7 16 -3 35 -22 19
-18 32 -36 30 -40 -3 -4 3 -7 13 -6 10 0 17 -6 16 -16 -1 -9 4 -14 11 -12 15
6 27 -69 16 -99 -5 -12 -5 -35 -2 -52 4 -16 3 -59 -2 -95 l-10 -65 -19 65
c-11 36 -29 92 -41 125 -21 60 -101 190 -144 234 -12 13 -20 28 -16 34 3 5 1
7 -4 4 -6 -4 -25 6 -41 21 -70 65 -263 142 -356 142 -57 0 -38 -10 28 -15 58
-5 182 -49 246 -87 92 -56 167 -140 238 -269 30 -54 92 -253 92 -294 0 -20 5
-45 10 -56 6 -10 7 -19 2 -19 -12 0 -45 80 -82 200 -17 58 -43 125 -58 150
-29 50 -99 127 -108 118 -8 -9 18 -47 36 -53 31 -10 120 -192 120 -245 0 -28
33 -130 42 -130 4 0 8 -7 8 -16 0 -8 -5 -12 -11 -9 -5 4 -19 -1 -30 -11 -10
-9 -19 -13 -20 -8 -3 46 -8 76 -13 81 -3 3 -4 -15 -1 -40 4 -43 0 -52 -22 -44
-5 1 -8 14 -8 29 0 15 -4 30 -8 34 -4 4 -7 20 -7 35 0 32 -10 41 -30 28 -10
-6 -11 -9 -2 -9 6 0 12 -9 12 -19 0 -11 4 -22 9 -25 5 -3 7 -15 4 -26 -3 -11
-1 -20 4 -20 5 0 9 -10 8 -22 -2 -28 -31 -36 -38 -11 -3 10 -2 -3 0 -29 5 -42
3 -48 -13 -48 -15 0 -16 -2 -5 -9 8 -5 14 -22 13 -38 -2 -40 -38 -132 -59
-150 -10 -8 -12 -11 -4 -8 8 5 7 -3 -5 -21 -32 -49 -66 -84 -77 -77 -6 3 -7 2
-4 -4 8 -13 -60 -76 -73 -68 -5 3 -7 0 -4 -8 6 -16 -40 -53 -66 -55 -8 -1 -37
-6 -65 -12 -58 -13 -274 -11 -292 3 -7 5 -17 6 -23 2 -5 -3 -17 1 -26 9 -20
21 -38 20 -30 0 5 -13 1 -14 -25 -9 -52 12 -64 13 -73 7 -21 -12 -56 -7 -56 8
0 11 -2 12 -8 2 -5 -8 -34 -13 -77 -13 -50 -1 -64 -4 -51 -11 9 -5 44 -8 77
-6 32 1 59 1 59 -2 0 -6 6 -6 178 -14 74 -3 137 -8 142 -11 4 -2 83 0 176 5
93 5 212 12 264 15 52 3 106 8 120 11 22 5 23 6 7 16 -10 5 -27 8 -38 5 -10
-3 -19 0 -19 5 0 6 -12 8 -29 5 -15 -3 -33 -1 -40 6 -8 8 -11 8 -11 -3 0 -9
-6 -8 -20 5 -18 17 -20 17 -14 2 5 -13 2 -16 -12 -10 -13 5 -15 3 -9 -7 5 -8
4 -11 -3 -6 -6 3 -22 2 -36 -4 -34 -12 -33 0 1 25 15 11 49 39 77 61 86 70
158 213 171 336 l7 68 33 0 c22 0 41 8 54 21 17 19 21 19 47 7 40 -20 68 -13
59 15 -16 52 -16 69 -1 113 9 26 16 58 16 71 0 13 9 42 20 63 l20 40 -20 0
c-15 0 -20 7 -20 24 0 14 4 27 9 30 4 3 5 24 1 47 -6 34 -19 52 -69 96 -52 47
-61 60 -61 88 0 25 -4 33 -14 29 -14 -6 -28 23 -46 96 -20 82 -52 174 -82 234
-30 63 -31 86 0 86 26 0 46 -25 77 -93 15 -31 31 -59 36 -62 12 -8 12 -7 -8
51 -17 51 -64 128 -110 180 l-28 30 -415 -7 c-730 -13 -2174 -55 -2596 -75
l-132 -7 5 26 c3 14 0 42 -7 62 -14 41 -14 41 20 50 23 5 26 2 44 -54 19 -58
20 -60 53 -59 18 1 33 4 33 7 0 16 -64 168 -75 180 -18 19 -45 -2 -42 -31 1
-13 -5 -22 -16 -24 -11 -1 -21 -5 -25 -8 -3 -3 -13 7 -23 23 -20 34 -49 43
-74 25 -17 -12 -17 -14 -2 -14 9 0 17 5 17 10 0 22 40 -17 55 -52 19 -49 29
-139 16 -157 -8 -13 -19 -13 -78 -2 -147 29 -180 86 -95 163 21 19 83 88 137
154 160 193 201 232 258 249 42 12 134 15 526 15 262 0 481 -4 488 -8 9 -6 8
-51 -3 -192 -7 -102 -14 -208 -14 -237 0 -51 -1 -52 -32 -56 -38 -5 102 -3
1122 23 409 10 748 16 752 14 5 -3 8 0 8 7 0 9 3 9 15 -1 8 -6 22 -10 32 -7
16 4 16 5 -2 12 -12 3 -32 27 -45 53 -67 127 -326 482 -351 482 -6 0 -2 -11 8
-24 170 -220 261 -350 328 -469 18 -32 13 -46 -9 -28 -8 7 -20 10 -25 7 -5 -4
-115 -9 -243 -12 -128 -3 -239 -7 -245 -9 -7 -3 -13 0 -13 5 0 6 10 10 23 10
17 0 19 2 8 9 -17 11 -82 3 -96 -12 -7 -7 -7 -8 0 -5 6 3 19 2 30 -3 13 -5 -3
-7 -45 -7 -36 0 -57 2 -47 5 10 3 16 11 13 18 -3 8 2 39 11 70 l16 56 -47 93
c-55 109 -102 176 -122 176 -9 0 -13 4 -10 8 6 10 11 10 -356 11 -199 1 -318
5 -318 11 0 6 -4 10 -8 10 -12 0 -3 -420 9 -442 5 -10 20 -20 32 -23 12 -3
162 -1 332 3 171 5 316 5 324 1 8 -3 -174 -10 -405 -13 -230 -4 -439 -8 -464
-9 l-45 -2 1 35 c1 19 5 151 9 293 l8 258 571 -6 c314 -3 629 -8 699 -9 112
-3 128 -2 125 12 -2 8 -16 19 -33 24 -35 10 -2590 19 -2770 9z m1513 -18 c-10
-2 -28 -2 -40 0 -13 2 -5 4 17 4 22 1 32 -1 23 -4z m55 0 c-7 -2 -19 -2 -25 0
-7 3 -2 5 12 5 14 0 19 -2 13 -5z m44 1 c-3 -3 -12 -4 -19 -1 -8 3 -5 6 6 6
11 1 17 -2 13 -5z m100 0 c-3 -3 -12 -4 -19 -1 -8 3 -5 6 6 6 11 1 17 -2 13
-5z m146 -1 c-24 -2 -62 -2 -85 0 -24 2 -5 4 42 4 47 0 66 -2 43 -4z m835 -10
c-38 -2 -98 -2 -135 0 -38 2 -7 3 67 3 74 0 105 -1 68 -3z m-408 -158 c28 -15
70 -76 130 -193 30 -58 32 -67 21 -101 -6 -21 -11 -47 -11 -59 0 -19 -8 -20
-172 -26 -495 -16 -593 -17 -609 -4 -14 11 -18 44 -22 206 l-5 192 319 0 c263
0 325 -3 349 -15z m-2142 -377 c36 -98 37 -101 21 -96 -23 8 -72 158 -51 158
4 0 17 -28 30 -62z m-933 -68 c3 -5 -1 -10 -9 -10 -8 0 -18 5 -21 10 -3 6 1
10 9 10 8 0 18 -4 21 -10z m122 -126 c-3 -3 -12 -4 -19 -1 -8 3 -5 6 6 6 11 1
17 -2 13 -5z"/>
<path d="M4680 2196 c0 -2 8 -10 18 -17 15 -13 16 -12 3 4 -13 16 -21 21 -21
13z"/>
<path d="M4730 2142 c0 -5 6 -15 14 -22 8 -6 16 -21 18 -33 2 -17 5 -18 9 -7
4 9 -3 27 -17 43 -13 16 -24 24 -24 19z"/>
<path d="M4780 2066 c0 -8 4 -17 9 -20 5 -4 7 3 4 14 -6 23 -13 26 -13 6z"/>
<path d="M4108 1893 c6 -2 18 -2 25 0 6 3 1 5 -13 5 -14 0 -19 -2 -12 -5z"/>
<path d="M4084 1871 c-11 -12 -1 -17 26 -13 17 2 30 8 30 12 0 8 -48 9 -56 1z"/>
<path d="M2350 2348 c25 -6 48 -15 51 -20 3 -5 9 0 12 11 5 20 1 21 -51 20
l-57 -1 45 -10z"/>
<path d="M2427 2329 c-38 -43 -25 -50 17 -10 21 21 39 30 47 26 8 -5 10 -4 5
3 -13 21 -41 13 -69 -19z"/>
<path d="M3180 2350 c-370 -4 -501 -8 -520 -18 -23 -11 -22 -12 15 -6 22 3
265 8 540 10 275 2 509 5 520 7 62 9 -115 11 -555 7z"/>
<path d="M3765 2340 c-3 -5 1 -10 9 -10 9 0 16 5 16 10 0 6 -4 10 -9 10 -6 0
-13 -4 -16 -10z"/>
<path d="M5140 2336 c0 -2 8 -10 18 -17 15 -13 16 -12 3 4 -13 16 -21 21 -21
13z"/>
<path d="M2327 2319 c8 -8 16 -8 30 0 16 9 14 10 -11 11 -22 0 -27 -3 -19 -11z"/>
<path d="M2610 2315 c7 -9 15 -13 17 -11 7 7 -7 26 -19 26 -6 0 -6 -6 2 -15z"/>
<path d="M4111 2322 c-31 -5 -72 -32 -66 -43 3 -4 15 1 26 12 21 21 27 21 422
18 295 -3 407 -7 426 -17 42 -20 241 -348 241 -396 0 -8 4 -17 9 -20 4 -3 5
13 1 37 -5 23 -6 46 -3 51 4 5 2 6 -4 3 -5 -3 -24 22 -41 56 -62 118 -92 172
-92 162 0 -5 -17 18 -37 53 -27 45 -45 64 -67 71 -17 5 -177 11 -356 11 -179
1 -350 3 -380 4 -30 0 -66 -1 -79 -2z"/>
<path d="M2310 2300 c6 -11 13 -20 16 -20 2 0 0 9 -6 20 -6 11 -13 20 -16 20
-2 0 0 -9 6 -20z"/>
<path d="M2720 2311 c0 -5 -10 -12 -22 -14 -20 -4 -19 -4 5 -6 18 -1 27 4 27
14 0 8 -2 15 -5 15 -3 0 -5 -4 -5 -9z"/>
<path d="M5130 2310 c0 -5 5 -10 11 -10 5 0 7 5 4 10 -3 6 -8 10 -11 10 -2 0
-4 -4 -4 -10z"/>
<path d="M2222 2305 c9 -10 45 -30 78 -46 23 -10 24 -12 7 -23 -10 -6 -102
-100 -204 -209 -102 -109 -203 -210 -224 -224 -34 -22 -42 -24 -70 -14 -41 14
-121 15 -99 1 8 -5 38 -10 65 -10 41 -1 47 -3 32 -11 -12 -7 -40 -8 -74 -4
-34 4 -53 3 -49 -3 10 -17 106 -24 124 -10 13 11 15 10 9 -4 -3 -10 -2 -18 3
-18 6 0 10 4 10 9 0 4 19 21 41 36 23 15 61 45 85 67 23 22 46 39 51 39 4 -1
8 2 8 7 0 15 17 32 26 26 5 -3 8 -2 7 3 -5 14 30 55 41 49 6 -4 9 -1 5 7 -3 8
2 14 11 14 9 0 14 -6 11 -13 -3 -8 0 -16 6 -20 6 -4 8 -3 4 4 -3 6 -2 13 3 17
5 3 9 14 8 25 -1 18 -2 18 -19 3 -10 -9 -18 -12 -18 -6 0 13 55 64 63 58 4 -3
5 -2 2 1 -6 9 106 125 115 119 4 -3 10 4 13 15 3 11 17 24 33 30 31 12 64 46
64 67 0 7 -13 -1 -30 -19 -22 -25 -29 -29 -30 -15 0 9 -4 17 -9 17 -5 0 -16 6
-23 14 -14 14 -89 35 -76 21z"/>
<path d="M2585 2300 c3 -5 2 -10 -4 -10 -5 0 -16 -6 -23 -13 -33 -34 -199
-216 -224 -247 -16 -19 -37 -44 -47 -55 -40 -42 -109 -136 -104 -141 2 -3 20
14 38 38 39 49 31 39 157 188 53 63 125 142 160 176 63 63 71 74 51 74 -5 0
-7 -4 -4 -10z"/>
<path d="M2838 2303 c6 -2 18 -2 25 0 6 3 1 5 -13 5 -14 0 -19 -2 -12 -5z"/>
<path d="M2888 2303 c6 -2 18 -2 25 0 6 3 1 5 -13 5 -14 0 -19 -2 -12 -5z"/>
<path d="M2978 2303 c7 -3 16 -2 19 1 4 3 -2 6 -13 5 -11 0 -14 -3 -6 -6z"/>
<path d="M3043 2303 c9 -2 25 -2 35 0 9 3 1 5 -18 5 -19 0 -27 -2 -17 -5z"/>
<path d="M3398 2303 c7 -3 16 -2 19 1 4 3 -2 6 -13 5 -11 0 -14 -3 -6 -6z"/>
<path d="M3518 2303 c6 -2 18 -2 25 0 6 3 1 5 -13 5 -14 0 -19 -2 -12 -5z"/>
<path d="M2610 2266 c7 -7 13 -7 20 0 6 6 3 10 -10 10 -13 0 -16 -4 -10 -10z"/>
<path d="M4707 2269 c7 -7 15 -10 18 -7 3 3 -2 9 -12 12 -14 6 -15 5 -6 -5z"/>
<path d="M5005 2269 c-11 -16 -1 -19 13 -3 7 8 8 14 3 14 -5 0 -13 -5 -16 -11z"/>
<path d="M2405 2259 c-11 -17 1 -21 15 -4 8 9 8 15 2 15 -6 0 -14 -5 -17 -11z"/>
<path d="M5200 2266 c0 -2 8 -10 18 -17 15 -13 16 -12 3 4 -13 16 -21 21 -21
13z"/>
<path d="M2240 2256 c0 -2 8 -10 18 -17 15 -13 16 -12 3 4 -13 16 -21 21 -21
13z"/>
<path d="M4931 2223 c36 -38 119 -172 119 -192 0 -6 -6 -8 -14 -5 -8 3 -17 0
-21 -6 -4 -7 2 -9 20 -6 21 4 30 -1 45 -26 10 -18 17 -35 14 -40 -3 -4 0 -8 5
-8 6 0 11 -5 11 -11 0 -6 7 -17 15 -25 20 -20 19 -11 -3 34 -79 162 -186 322
-216 322 -5 0 6 -17 25 -37z"/>
<path d="M2555 2229 c-4 -6 -5 -12 -2 -15 2 -3 7 2 10 11 7 17 1 20 -8 4z"/>
<path d="M5204 2224 c9 -8 20 -12 26 -9 5 3 10 -1 10 -9 0 -9 5 -16 10 -16 7
0 7 7 0 20 -6 11 -15 18 -20 15 -5 -3 -11 -1 -15 5 -3 5 -11 10 -16 10 -6 0
-3 -7 5 -16z"/>
<path d="M2370 2219 c0 -5 5 -7 10 -4 6 3 10 8 10 11 0 2 -4 4 -10 4 -5 0 -10
-5 -10 -11z"/>
<path d="M2660 2210 c-8 -5 -10 -10 -5 -10 6 0 17 5 25 10 8 5 11 10 5 10 -5
0 -17 -5 -25 -10z"/>
<path d="M2305 2200 c-3 -5 1 -10 10 -10 9 0 13 5 10 10 -3 6 -8 10 -10 10 -2
0 -7 -4 -10 -10z"/>
<path d="M2210 2190 c0 -5 -6 -7 -14 -4 -8 3 -16 1 -20 -4 -3 -5 5 -8 16 -7
19 1 41 25 24 25 -3 0 -6 -4 -6 -10z"/>
<path d="M2616 2175 c-9 -26 -7 -32 5 -12 6 10 9 21 6 23 -2 3 -7 -2 -11 -11z"/>
<path d="M2287 2144 c-10 -13 -14 -24 -10 -24 9 0 36 40 31 45 -2 2 -11 -8
-21 -21z"/>
<path d="M2260 2149 c0 -5 5 -7 10 -4 6 3 10 8 10 11 0 2 -4 4 -10 4 -5 0 -10
-5 -10 -11z"/>
<path d="M2305 2130 c-3 -6 1 -7 9 -4 18 7 21 14 7 14 -6 0 -13 -4 -16 -10z"/>
<path d="M5308 2130 c6 -8 12 -21 12 -30 0 -9 9 -25 20 -35 11 -10 20 -13 20
-8 0 6 -7 16 -15 23 -8 7 -15 18 -15 25 0 7 -8 19 -17 26 -15 11 -16 11 -5 -1z"/>
<path d="M2233 2118 c-27 -13 -29 -23 -7 -32 9 -3 12 -2 9 5 -4 6 1 17 11 24
22 17 18 18 -13 3z"/>
<path d="M1950 2070 c-8 -5 -11 -12 -8 -16 4 -3 14 1 23 10 18 17 9 21 -15 6z"/>
<path d="M2190 2055 c0 -8 4 -15 10 -15 5 0 7 7 4 15 -4 8 -8 15 -10 15 -2 0
-4 -7 -4 -15z"/>
<path d="M5373 2027 c10 -8 17 -19 16 -23 -3 -20 2 -32 15 -37 10 -4 13 -1 9
9 -3 7 -9 14 -14 14 -4 0 -6 6 -3 14 3 9 -4 19 -18 26 -21 10 -21 10 -5 -3z"/>
<path d="M4970 2017 c0 -1 -9 -27 -20 -57 -11 -30 -20 -66 -19 -80 1 -15 9 0
21 40 10 36 23 73 29 83 6 11 6 17 -1 17 -5 0 -10 -1 -10 -3z"/>
<path d="M4910 1969 c-10 -24 -10 -32 0 -42 10 -10 12 -7 7 11 -4 17 -2 22 7
19 9 -4 11 2 8 19 -6 31 -7 30 -22 -7z"/>
<path d="M2201 1974 c0 -11 3 -14 6 -6 3 7 2 16 -1 19 -3 4 -6 -2 -5 -13z"/>
<path d="M2475 1951 c-3 -5 -2 -12 3 -15 5 -3 9 1 9 9 0 17 -3 19 -12 6z"/>
<path d="M2500 1952 c0 -5 7 -9 15 -9 8 0 12 4 9 9 -3 4 -9 8 -15 8 -5 0 -9
-4 -9 -8z"/>
<path d="M1950 1941 c0 -5 7 -12 16 -15 14 -5 15 -4 4 9 -14 17 -20 19 -20 6z"/>
<path d="M5000 1936 c0 -8 5 -18 10 -21 6 -3 10 3 10 14 0 12 -4 21 -10 21 -5
0 -10 -6 -10 -14z"/>
<path d="M5430 1931 c0 -25 6 -27 13 -6 4 8 2 17 -3 20 -6 4 -10 -3 -10 -14z"/>
<path d="M5447 1901 c-3 -13 -1 -18 9 -14 7 2 10 11 7 19 -7 19 -10 18 -16 -5z"/>
<path d="M4889 1902 c-5 -65 -5 -80 3 -76 4 3 8 14 8 24 0 10 5 22 10 25 6 3
10 10 10 15 0 10 -30 22 -31 12z"/>
<path d="M4988 1882 c-7 -26 4 -29 23 -5 8 9 9 14 2 10 -6 -4 -13 -2 -15 5 -3
7 -7 2 -10 -10z"/>
<path d="M5573 1893 c-17 -6 -17 -33 0 -33 8 0 22 9 32 20 17 19 17 20 -1 19
-10 0 -25 -3 -31 -6z"/>
<path d="M2615 1869 c-4 -6 -5 -12 -2 -15 2 -3 7 2 10 11 7 17 1 20 -8 4z"/>
<path d="M1880 1860 c-9 -6 -10 -10 -3 -10 6 0 15 5 18 10 8 12 4 12 -15 0z"/>
<path d="M1980 1849 c0 -5 5 -7 10 -4 6 3 10 8 10 11 0 2 -4 4 -10 4 -5 0 -10
-5 -10 -11z"/>
<path d="M3710 1846 c0 -9 5 -16 10 -16 6 0 10 4 10 9 0 6 -4 13 -10 16 -5 3
-10 -1 -10 -9z"/>
<path d="M1842 1830 c-7 -11 -8 -20 -3 -20 9 0 24 30 18 36 -1 2 -8 -6 -15
-16z"/>
<path d="M1934 1802 c-39 -35 -75 -87 -54 -80 8 3 14 11 12 18 -2 8 3 10 13 6
9 -3 13 -2 10 3 -6 11 33 56 55 63 8 2 10 7 4 10 -5 4 -23 -6 -40 -20z"/>
<path d="M2292 1815 c4 -4 3 -14 -4 -22 -8 -11 -7 -12 6 -7 19 7 21 20 4 30
-7 4 -10 4 -6 -1z"/>
<path d="M2501 1805 c1 -19 18 -51 18 -35 0 8 -4 22 -9 30 -5 8 -9 11 -9 5z"/>
<path d="M2122 1770 c-24 -32 -30 -50 -9 -28 36 40 49 58 40 58 -5 0 -19 -13
-31 -30z"/>
<path d="M3630 1790 c0 -5 5 -10 10 -10 6 0 10 5 10 10 0 6 -4 10 -10 10 -5 0
-10 -4 -10 -10z"/>
<path d="M2378 1773 c7 -3 16 -2 19 1 4 3 -2 6 -13 5 -11 0 -14 -3 -6 -6z"/>
<path d="M2425 1770 c3 -5 8 -10 11 -10 2 0 4 5 4 10 0 6 -5 10 -11 10 -5 0
-7 -4 -4 -10z"/>
<path d="M1481 1754 c-51 -22 -63 -34 -50 -50 12 -15 -1 -19 -96 -29 -33 -4
-125 -19 -205 -35 -80 -15 -203 -38 -275 -49 -336 -55 -327 -53 -357 -86 -15
-16 -67 -79 -115 -140 -136 -173 -235 -280 -255 -278 -10 2 -18 -3 -18 -10 0
-7 -16 -21 -36 -30 -31 -15 -35 -21 -30 -42 5 -18 2 -25 -9 -25 -18 0 -16 10
-21 -127 l-4 -112 27 -3 c23 -2 31 -13 50 -63 17 -43 23 -75 21 -115 l-3 -54
90 -14 c50 -8 107 -14 127 -13 20 0 40 -4 43 -9 3 -6 21 -10 38 -10 29 0 34
-5 60 -60 27 -59 168 -220 192 -220 17 0 65 -24 65 -32 0 -11 -24 -10 -53 1
-14 5 -40 6 -61 1 -34 -7 -51 2 -23 13 7 3 5 6 -5 6 -12 1 -18 -6 -18 -23 0
-21 6 -24 56 -30 68 -8 639 -7 671 1 13 3 20 9 17 14 -3 5 8 9 25 9 16 0 31
-3 34 -7 2 -5 2 -2 1 4 -2 7 5 17 14 22 16 10 16 10 0 11 -10 0 -18 -4 -18
-10 0 -5 -26 -10 -57 -10 -41 0 -54 -3 -43 -10 13 -8 12 -10 -2 -10 -10 0 -18
5 -18 10 0 14 -63 13 -78 -2 -6 -6 -15 -9 -18 -5 -4 3 7 14 25 24 17 10 31 21
31 26 0 4 6 7 14 7 8 0 18 4 21 10 8 13 -23 1 -56 -22 -15 -10 -54 -25 -87
-33 -118 -31 -378 -4 -405 42 -4 7 -15 13 -23 13 -9 0 -21 6 -27 13 -7 7 -32
34 -57 60 -35 37 -42 49 -32 59 10 10 14 8 18 -10 4 -12 13 -22 20 -22 8 0 14
-7 14 -15 0 -8 6 -12 13 -9 10 3 3 16 -22 43 -20 21 -38 36 -40 34 -2 -1 -11
3 -20 10 -14 11 -14 10 -2 -6 8 -9 11 -20 8 -23 -9 -10 -67 90 -63 108 2 10
-1 16 -8 15 -6 -1 -10 4 -8 11 1 6 -7 12 -17 12 -21 0 -34 13 -24 24 3 3 13 0
22 -6 9 -7 13 -8 9 -4 -4 5 -2 16 5 25 10 13 10 14 -3 5 -27 -19 -45 -10 -51
26 -4 19 -8 29 -9 23 -6 -29 -6 -39 -1 -48 12 -22 8 -35 -10 -35 -11 0 -18 4
-15 8 3 5 -5 8 -17 8 -18 -1 -21 4 -19 23 2 14 0 21 -7 17 -5 -4 -8 -15 -6
-26 2 -11 0 -22 -5 -25 -12 -7 -41 5 -35 15 3 5 -4 6 -15 3 -18 -5 -19 -2 -14
28 7 36 -1 34 -20 -3 -7 -13 -17 -23 -24 -22 -7 1 -24 2 -40 3 -23 1 -27 5
-28 33 0 31 22 62 37 52 8 -5 18 31 25 94 13 123 68 311 95 328 5 3 9 15 9 28
0 55 159 221 266 277 81 43 120 56 229 80 44 9 69 17 55 18 -87 4 -273 -61
-356 -124 -65 -49 -180 -172 -200 -213 -11 -25 -21 -33 -34 -29 -13 3 -17 0
-13 -10 3 -8 12 -12 19 -9 19 7 17 -9 -3 -30 -10 -10 -18 -20 -18 -23 -1 -3
-10 -37 -22 -76 -12 -38 -29 -119 -38 -180 -15 -100 -27 -131 -46 -119 -4 2
-11 19 -14 37 -4 17 -12 37 -17 44 -7 8 0 16 21 28 27 14 31 21 31 58 -1 50
-18 77 -51 77 -38 1 -64 22 -65 53 0 20 4 26 16 22 11 -3 16 2 17 17 2 17 0
19 -7 8 -5 -8 -12 -11 -16 -7 -4 3 -1 13 5 21 7 8 11 23 9 32 -4 24 32 32 44
10 10 -17 38 -22 38 -7 0 6 -5 13 -12 17 -7 4 -8 3 -4 -4 4 -7 2 -12 -3 -12
-6 0 -11 4 -11 9 0 5 -3 16 -6 24 -3 8 2 17 11 21 9 3 14 2 11 -3 -3 -5 2 -15
12 -22 14 -11 15 -11 5 0 -9 10 -4 21 20 46 22 24 34 30 40 22 5 -8 7 -7 5 3
-4 20 62 101 75 93 6 -3 7 -2 4 4 -3 5 22 43 56 84 34 41 81 100 105 132 23
31 47 57 52 57 6 0 9 6 7 13 -1 6 5 12 13 12 8 0 14 -6 12 -13 -1 -8 2 -11 7
-7 6 3 8 12 5 19 -6 15 29 25 82 22 18 -1 30 2 28 6 -3 5 3 9 13 9 36 3 69 8
114 18 26 5 69 13 95 16 62 9 77 11 143 24 30 6 63 8 74 5 14 -4 17 -3 12 6
-5 9 -4 11 3 6 6 -4 20 -2 31 3 26 14 221 43 246 37 11 -3 24 -5 29 -5 5 1 12
-4 15 -10 4 -6 38 -11 76 -11 39 0 91 -1 117 -1 25 0 49 4 52 9 2 4 -9 8 -27
7 -18 -1 -36 1 -42 4 -14 8 -55 8 -50 1 6 -10 -112 -2 -132 9 -10 6 -13 11 -8
11 6 1 17 3 26 5 9 1 35 -1 58 -5 23 -4 44 -4 47 1 2 4 11 6 19 2 9 -3 15 1
15 10 0 8 5 17 12 19 12 4 3 28 -10 28 -4 0 -19 -11 -34 -25 -15 -14 -30 -21
-33 -15 -9 14 -62 12 -69 -2 -3 -7 -3 -2 0 12 8 32 4 29 54 38 24 4 45 13 48
20 5 17 -35 15 -77 -4z m-1391 -912 c38 -7 50 -21 50 -57 0 -47 -20 -60 -64
-41 -33 14 -62 53 -48 66 2 3 7 -1 9 -7 3 -7 11 -13 19 -13 9 0 13 -4 10 -9
-3 -5 1 -12 10 -15 8 -3 12 -2 9 4 -3 6 1 10 10 10 11 0 15 -5 11 -16 -3 -8
-2 -12 4 -9 16 10 12 45 -5 45 -27 0 -75 30 -75 46 0 12 5 14 18 9 9 -4 28
-10 42 -13z"/>
<path d="M2328 1763 c6 -2 18 -2 25 0 6 3 1 5 -13 5 -14 0 -19 -2 -12 -5z"/>
<path d="M3555 1760 c4 -6 11 -8 16 -5 14 9 11 15 -7 15 -8 0 -12 -5 -9 -10z"/>
<path d="M2275 1750 c3 -5 12 -7 20 -3 21 7 19 13 -6 13 -11 0 -18 -4 -14 -10z"/>
<path d="M3338 1753 c34 -2 90 -2 125 0 34 2 6 3 -63 3 -69 0 -97 -1 -62 -3z"/>
<path d="M2998 1743 c6 -2 18 -2 25 0 6 3 1 5 -13 5 -14 0 -19 -2 -12 -5z"/>
<path d="M3048 1743 c7 -3 16 -2 19 1 4 3 -2 6 -13 5 -11 0 -14 -3 -6 -6z"/>
<path d="M3118 1743 c12 -2 32 -2 45 0 12 2 2 4 -23 4 -25 0 -35 -2 -22 -4z"/>
<path d="M2518 1723 c7 -3 16 -2 19 1 4 3 -2 6 -13 5 -11 0 -14 -3 -6 -6z"/>
<path d="M3902 1678 c13 -18 28 -38 35 -45 30 -33 44 -122 40 -261 -3 -94 -1
-129 5 -112 12 31 12 292 -1 299 -4 3 -12 22 -16 41 -7 34 -60 110 -77 110 -5
0 2 -15 14 -32z"/>
<path d="M4675 1684 c-10 -8 -15 -17 -11 -21 4 -4 10 -2 14 4 4 7 26 15 48 19
41 6 90 -11 120 -41 18 -17 35 -85 22 -85 -6 0 -7 -7 -4 -16 14 -35 -50 -86
-109 -86 -14 0 -22 -4 -19 -9 10 -16 55 -9 87 13 39 27 44 34 58 80 10 31 9
42 -9 80 -12 24 -35 51 -51 61 -35 20 -119 21 -146 1z"/>
<path d="M5655 1660 c-6 -9 11 -50 21 -50 2 0 0 9 -6 19 -7 14 -6 21 2 23 9 3
9 6 1 11 -7 4 -14 3 -18 -3z"/>
<path d="M4627 1613 c-9 -28 -12 -49 -7 -51 6 -2 10 -13 10 -24 0 -20 62 -88
80 -88 5 0 -9 17 -30 38 -43 40 -55 81 -39 136 14 49 3 40 -14 -11z"/>
<path d="M1380 1632 c0 -5 7 -9 15 -9 8 0 12 4 9 9 -3 4 -9 8 -15 8 -5 0 -9
-4 -9 -8z"/>
<path d="M5702 1595 c12 -24 23 -43 26 -41 4 5 -36 86 -43 86 -3 0 5 -20 17
-45z"/>
<path d="M2377 1616 c-4 -10 -1 -13 8 -9 8 3 12 9 9 14 -7 12 -11 11 -17 -5z"/>
<path d="M3610 1601 c-19 -10 -52 -21 -72 -25 -69 -13 -68 -67 2 -70 16 -1 41
-12 55 -26 40 -37 113 -35 154 4 23 22 35 27 55 22 37 -9 75 3 88 27 17 33
-24 58 -103 63 -35 2 -79 4 -97 6 -21 1 -28 4 -20 10 26 16 -27 7 -62 -11z
m260 -41 c8 -5 12 -10 10 -12 -39 -25 -52 -28 -72 -17 -16 8 -64 10 -165 6
-85 -4 -143 -3 -143 3 0 5 17 12 38 15 20 4 42 8 47 10 23 8 271 4 285 -5z
m-225 -64 c15 -8 35 -12 44 -8 12 5 8 8 -14 13 -23 5 -17 7 28 8 31 0 57 -1
57 -3 0 -14 -72 -43 -99 -41 -35 3 -91 45 -59 45 8 0 28 -6 43 -14z"/>
<path d="M5681 1595 c0 -5 6 -21 14 -35 8 -14 14 -20 14 -15 0 6 -6 21 -14 35
-8 14 -14 21 -14 15z"/>
<path d="M975 1570 c-3 -6 1 -7 9 -4 18 7 21 14 7 14 -6 0 -13 -4 -16 -10z"/>
<path d="M1394 1542 c-10 -9 -54 -54 -96 -98 -43 -45 -80 -79 -83 -76 -3 3 -5
0 -5 -6 0 -7 -25 -37 -55 -67 l-55 -54 -42 15 c-32 11 -74 14 -173 10 -164 -5
-249 -30 -340 -100 -50 -38 -125 -116 -125 -130 0 -5 19 10 43 35 89 93 139
124 257 159 55 17 102 23 175 24 109 1 224 -19 232 -41 3 -7 14 -13 25 -13 10
0 16 -4 13 -10 -3 -5 0 -7 9 -4 15 6 76 -24 76 -37 0 -4 9 -11 21 -14 35 -11
68 -42 113 -104 17 -23 36 -41 43 -41 15 0 4 15 -67 93 -51 56 -137 115 -193
132 -21 6 -39 13 -40 16 -3 9 90 109 102 109 6 0 11 3 11 8 0 4 17 25 38 47
123 131 145 156 140 160 -3 3 -13 -3 -24 -13z"/>
<path d="M1690 1553 c0 -11 60 -14 77 -4 9 5 -2 8 -31 9 -25 1 -46 -1 -46 -5z"/>
<path d="M1450 1540 c-10 -6 -2 -9 28 -8 23 0 42 4 42 9 0 12 -51 11 -70 -1z"/>
<path d="M1588 1543 c17 -2 47 -2 65 0 17 2 3 4 -33 4 -36 0 -50 -2 -32 -4z"/>
<path d="M5715 1513 c4 -10 19 -57 33 -105 14 -49 29 -88 34 -88 5 0 5 8 -1
18 -5 9 -14 44 -21 77 -13 60 -35 115 -46 115 -4 0 -3 -8 1 -17z"/>
<path d="M1665 1515 c-43 -11 -125 -37 -125 -40 0 -6 74 1 103 9 35 10 77 0
77 -19 0 -23 -68 -37 -94 -20 -11 8 -30 15 -41 14 -19 0 -18 -1 3 -9 23 -10
31 -21 10 -16 -7 1 -10 1 -5 -1 4 -3 5 -8 3 -12 -3 -4 20 -6 51 -4 63 4 96 25
91 57 -3 19 -52 46 -73 41z"/>
<path d="M408 1457 c-58 -52 -158 -167 -179 -208 -23 -46 -24 -56 -4 -39 8 7
15 16 15 21 0 13 84 128 93 129 5 0 5 -5 1 -12 -4 -7 -3 -8 5 -4 6 4 9 11 6
16 -3 5 0 12 7 17 13 8 103 113 96 113 -1 0 -19 -15 -40 -33z"/>
<path d="M1427 1478 c-7 -4 11 -8 41 -8 28 0 52 3 52 8 0 10 -77 10 -93 0z"/>
<path d="M1383 1452 c-8 -5 -9 -13 -3 -22 8 -13 10 -12 10 2 0 9 10 19 23 21
19 4 19 4 2 5 -11 1 -25 -2 -32 -6z"/>
<path d="M1468 1453 c17 -2 47 -2 65 0 17 2 3 4 -33 4 -36 0 -50 -2 -32 -4z"/>
<path d="M880 1433 c0 -6 42 -13 93 -17 50 -3 108 -9 127 -11 32 -5 32 -4 -8
9 -55 18 -212 32 -212 19z"/>
<path d="M1423 1433 c9 -2 23 -2 30 0 6 3 -1 5 -18 5 -16 0 -22 -2 -12 -5z"/>
<path d="M1508 1433 c12 -2 32 -2 45 0 12 2 2 4 -23 4 -25 0 -35 -2 -22 -4z"/>
<path d="M1801 1330 c-6 -56 -10 -171 -9 -258 l1 -157 7 190 c7 172 12 234 26
303 2 12 0 22 -4 22 -5 0 -14 -45 -21 -100z"/>
<path d="M1408 1413 c7 -3 16 -2 19 1 4 3 -2 6 -13 5 -11 0 -14 -3 -6 -6z"/>
<path d="M245 1350 c-58 -56 -95 -103 -95 -119 0 -17 -38 -13 -48 5 -7 12 -11
13 -17 5 -4 -8 5 -16 24 -24 28 -10 31 -15 25 -42 -7 -33 -7 -33 -5 -57 0 -10
4 -18 9 -18 8 0 52 93 52 110 0 22 52 112 87 150 50 56 28 49 -32 -10z m-72
-150 c-3 -11 -9 -20 -15 -20 -5 0 -4 9 2 20 6 11 12 20 14 20 2 0 2 -9 -1 -20z"/>
<path d="M1160 1386 c28 -17 50 -21 35 -7 -6 5 -21 12 -35 15 l-25 7 25 -15z"/>
<path d="M5070 1390 c-25 -4 -48 -6 -52 -3 -5 2 -8 0 -8 -6 0 -6 -17 -13 -37
-17 -86 -15 -273 -136 -351 -226 -29 -33 -95 -154 -107 -196 -4 -12 -11 -19
-17 -16 -6 4 -8 3 -5 -3 3 -5 -3 -38 -14 -74 -28 -90 -38 -139 -29 -139 4 0
14 24 20 53 21 88 91 257 134 321 107 158 323 280 541 304 70 8 73 9 25 9 -30
0 -75 -3 -100 -7z"/>
<path d="M183 1352 c-12 -8 -33 -55 -33 -75 0 -7 12 8 25 32 26 45 28 55 8 43z"/>
<path d="M20 1324 c-6 -14 -10 -50 -10 -80 0 -45 4 -59 25 -79 13 -14 29 -25
34 -25 6 0 13 -11 17 -25 8 -31 24 -23 24 11 0 15 -4 23 -10 19 -6 -4 -19 4
-30 17 -23 28 -27 88 -6 88 20 0 48 29 40 42 -4 5 -17 0 -31 -14 l-25 -23 3
48 c5 53 -14 66 -31 21z"/>
<path d="M1250 1342 c0 -4 28 -22 61 -40 61 -34 72 -42 134 -94 46 -40 128
-161 162 -243 31 -73 57 -166 68 -247 4 -27 11 -48 15 -48 9 0 -14 132 -36
209 -20 73 -103 243 -114 236 -5 -3 -12 4 -15 16 -10 30 -80 104 -124 131 -20
12 -45 30 -55 40 -11 10 -25 18 -30 18 -6 0 -23 7 -38 14 -16 8 -28 12 -28 8z"/>
<path d="M381 1292 c-7 -13 -6 -19 2 -19 7 0 13 9 13 19 0 10 -1 18 -3 18 -1
0 -7 -8 -12 -18z"/>
<path d="M5158 1273 c7 -3 16 -2 19 1 4 3 -2 6 -13 5 -11 0 -14 -3 -6 -6z"/>
<path d="M370 1250 c-9 -6 -10 -10 -3 -10 6 0 15 5 18 10 8 12 4 12 -15 0z"/>
<path d="M1186 1247 c3 -10 9 -15 12 -12 3 3 0 11 -7 18 -10 9 -11 8 -5 -6z"/>
<path d="M4231 1251 c-12 -8 87 -21 158 -21 60 0 28 9 -54 15 -44 4 -82 8 -85
10 -3 2 -12 0 -19 -4z"/>
<path d="M3484 1239 c-16 -4 14 -7 66 -6 94 0 98 3 9 9 -25 2 -59 0 -75 -3z"/>
<path d="M3713 1243 c15 -2 39 -2 55 0 15 2 2 4 -28 4 -30 0 -43 -2 -27 -4z"/>
<path d="M3820 1240 c14 -4 45 -8 70 -8 l45 1 -45 8 c-25 4 -56 7 -70 7 l-25
0 25 -8z"/>
<path d="M4010 1240 c-14 -5 17 -6 70 -3 52 3 97 7 99 9 8 8 -145 2 -169 -6z"/>
<path d="M5737 1229 c4 -13 8 -18 11 -10 2 7 -1 18 -6 23 -8 8 -9 4 -5 -13z"/>
<path d="M2760 1230 c-37 -6 -31 -7 35 -7 44 0 89 4 100 8 25 10 -70 9 -135
-1z"/>
<path d="M2943 1233 c9 -2 25 -2 35 0 9 3 1 5 -18 5 -19 0 -27 -2 -17 -5z"/>
<path d="M3033 1233 c7 -7 159 -4 166 3 2 2 -35 4 -84 4 -49 0 -85 -3 -82 -7z"/>
<path d="M3258 1233 c18 -2 45 -2 60 0 15 2 0 4 -33 4 -33 0 -45 -2 -27 -4z"/>
<path d="M3378 1233 c12 -2 30 -2 40 0 9 3 -1 5 -23 4 -22 0 -30 -2 -17 -4z"/>
<path d="M3947 1229 c7 -7 15 -10 18 -7 3 3 -2 9 -12 12 -14 6 -15 5 -6 -5z"/>
<path d="M5084 1225 c10 -11 22 -12 49 -4 52 14 233 -3 222 -22 -3 -4 0 -11 6
-15 8 -5 9 -3 4 6 -6 10 -1 12 25 7 18 -4 37 -7 42 -7 5 0 6 -5 2 -12 -4 -6
-3 -9 2 -5 20 12 144 -65 144 -89 0 -7 5 -16 11 -20 13 -8 36 13 25 23 -4 4
-12 1 -17 -7 -9 -13 -10 -12 -6 1 10 30 -78 89 -193 131 -70 26 -340 37 -316
13z"/>
<path d="M550 1220 c0 -5 5 -10 11 -10 5 0 7 5 4 10 -3 6 -8 10 -11 10 -2 0
-4 -4 -4 -10z"/>
<path d="M1017 1223 c-4 -3 -7 -16 -7 -29 0 -16 7 -23 28 -27 31 -6 37 -3 27
13 -4 6 -15 8 -26 5 -22 -7 -23 -2 -9 26 10 18 1 27 -13 12z"/>
<path d="M2663 1223 c9 -2 23 -2 30 0 6 3 -1 5 -18 5 -16 0 -22 -2 -12 -5z"/>
<path d="M5485 1220 c-3 -5 -1 -10 4 -10 6 0 11 5 11 10 0 6 -2 10 -4 10 -3 0
-8 -4 -11 -10z"/>
<path d="M965 1211 c7 -12 -18 -19 -75 -20 -40 -1 -84 -10 -130 -28 -8 -3 -19
-7 -25 -7 -28 -3 -137 -73 -178 -114 -91 -91 -114 -128 -149 -236 -18 -55 -40
-205 -32 -215 10 -11 16 14 24 98 6 50 14 99 19 109 5 9 16 37 25 62 17 49 82
141 105 148 8 3 11 0 7 -7 -4 -6 -2 -11 4 -11 6 0 9 8 6 18 -7 22 48 80 58 63
4 -6 4 -17 0 -23 -5 -10 -4 -10 6 -1 10 9 10 15 2 26 -10 11 1 20 57 46 38 17
78 34 88 36 10 2 33 8 52 14 18 6 36 10 40 9 3 0 30 0 59 1 45 1 52 4 52 21 0
11 -5 20 -11 20 -5 0 -8 -4 -4 -9z"/>
<path d="M2018 1209 c-8 -6 1 -9 25 -9 20 0 37 2 37 4 0 9 -50 12 -62 5z"/>
<path d="M2203 1213 c9 -2 23 -2 30 0 6 3 -1 5 -18 5 -16 0 -22 -2 -12 -5z"/>
<path d="M2303 1213 c9 -2 25 -2 35 0 9 3 1 5 -18 5 -19 0 -27 -2 -17 -5z"/>
<path d="M2428 1213 c7 -3 16 -2 19 1 4 3 -2 6 -13 5 -11 0 -14 -3 -6 -6z"/>
<path d="M2618 1213 c7 -3 16 -2 19 1 4 3 -2 6 -13 5 -11 0 -14 -3 -6 -6z"/>
<path d="M4431 1216 c2 -2 20 -6 39 -10 25 -4 31 -3 20 4 -14 9 -69 15 -59 6z"/>
<path d="M4993 1200 c-24 -10 -43 -24 -43 -30 0 -7 6 -5 15 3 8 9 33 18 55 22
22 4 40 11 40 16 0 14 -21 11 -67 -11z"/>
<path d="M76 1194 c-9 -22 3 -32 14 -14 12 19 12 30 1 30 -5 0 -12 -7 -15 -16z"/>
<path d="M525 1200 c-3 -5 -1 -10 4 -10 6 0 11 5 11 10 0 6 -2 10 -4 10 -3 0
-8 -4 -11 -10z"/>
<path d="M1828 1199 c-16 -11 58 -10 127 1 46 7 44 8 -32 8 -45 -1 -87 -5 -95
-9z"/>
<path d="M5515 1200 c3 -5 8 -10 11 -10 2 0 4 5 4 10 0 6 -5 10 -11 10 -5 0
-7 -4 -4 -10z"/>
<path d="M5596 1198 c3 -5 10 -5 16 -2 6 4 17 -1 25 -11 7 -11 13 -14 13 -8 0
6 -6 15 -12 20 -16 12 -49 13 -42 1z"/>
<path d="M100 1174 c0 -8 5 -12 10 -9 6 4 8 11 5 16 -9 14 -15 11 -15 -7z"/>
<path d="M1086 1172 c-3 -6 1 -13 10 -16 23 -9 28 -2 10 13 -8 7 -17 8 -20 3z"/>
<path d="M4580 1170 c0 -5 10 -10 23 -10 18 0 19 2 7 10 -19 13 -30 13 -30 0z"/>
<path d="M970 1155 c-10 -13 -9 -15 8 -15 15 0 20 5 16 15 -4 8 -7 15 -9 15
-1 0 -8 -7 -15 -15z"/>
<path d="M5100 1160 c-13 -8 -12 -10 3 -10 9 0 17 5 17 10 0 12 -1 12 -20 0z"/>
<path d="M5576 1157 c3 -10 9 -15 12 -12 3 3 0 11 -7 18 -10 9 -11 8 -5 -6z"/>
<path d="M865 1150 c-3 -5 1 -10 9 -10 9 0 16 5 16 10 0 6 -4 10 -9 10 -6 0
-13 -4 -16 -10z"/>
<path d="M910 1150 c0 -5 7 -10 15 -10 8 0 15 5 15 10 0 6 -7 10 -15 10 -8 0
-15 -4 -15 -10z"/>
<path d="M1130 1149 c0 -5 6 -9 14 -9 8 0 16 -5 18 -10 2 -6 13 -12 26 -13 12
0 22 -5 22 -9 0 -4 8 -8 18 -7 14 0 12 3 -7 17 -32 22 -91 42 -91 31z"/>
<path d="M5218 1153 c7 -3 16 -2 19 1 4 3 -2 6 -13 5 -11 0 -14 -3 -6 -6z"/>
<path d="M825 1140 c-3 -5 -2 -10 4 -10 5 0 13 5 16 10 3 6 2 10 -4 10 -5 0
-13 -4 -16 -10z"/>
<path d="M1010 1140 c0 -7 6 -10 14 -7 7 3 17 2 22 -3 14 -13 74 -23 74 -12 0
5 -13 12 -29 15 -16 3 -40 9 -55 13 -17 4 -26 2 -26 -6z"/>
<path d="M4842 1123 c-30 -38 -28 -55 3 -19 22 25 32 46 22 46 -2 0 -13 -12
-25 -27z"/>
<path d="M4927 1143 c-4 -3 -7 -13 -7 -21 0 -8 -8 -21 -17 -28 -16 -12 -16
-13 -2 -14 20 0 43 25 35 39 -4 5 2 14 11 20 15 9 15 10 2 11 -9 0 -19 -3 -22
-7z"/>
<path d="M5790 1146 c0 -2 8 -10 18 -17 15 -13 16 -12 3 4 -13 16 -21 21 -21
13z"/>
<path d="M775 1130 c-3 -5 -2 -10 4 -10 5 0 13 5 16 10 3 6 2 10 -4 10 -5 0
-13 -4 -16 -10z"/>
<path d="M1565 1130 c-3 -6 1 -7 9 -4 18 7 21 14 7 14 -6 0 -13 -4 -16 -10z"/>
<path d="M740 1114 c0 -8 5 -12 10 -9 6 4 8 11 5 16 -9 14 -15 11 -15 -7z"/>
<path d="M4988 1123 c7 -3 16 -2 19 1 4 3 -2 6 -13 5 -11 0 -14 -3 -6 -6z"/>
<path d="M5080 1118 c0 -8 120 0 130 9 2 2 -26 3 -63 1 -37 -1 -67 -6 -67 -10z"/>
<path d="M5227 1110 c3 -11 7 -20 8 -20 1 0 5 9 8 20 3 12 0 20 -8 20 -8 0
-11 -8 -8 -20z"/>
<path d="M5270 1114 c0 -8 5 -12 10 -9 6 3 10 10 10 16 0 5 -4 9 -10 9 -5 0
-10 -7 -10 -16z"/>
<path d="M5040 1110 c-13 -8 -12 -10 3 -10 9 0 17 5 17 10 0 12 -1 12 -20 0z"/>
<path d="M5310 1112 c0 -5 14 -12 30 -14 17 -3 30 -1 30 4 0 4 -6 8 -14 8 -8
0 -21 3 -30 6 -9 3 -16 2 -16 -4z"/>
<path d="M400 1101 c0 -5 5 -13 10 -16 6 -3 10 -2 10 4 0 5 -4 13 -10 16 -5 3
-10 2 -10 -4z"/>
<path d="M700 1100 c0 -5 4 -10 9 -10 6 0 13 5 16 10 3 6 -1 10 -9 10 -9 0
-16 -4 -16 -10z"/>
<path d="M1186 1071 c34 -21 74 -49 89 -62 31 -28 105 -130 124 -174 8 -16 15
-25 18 -19 2 7 -5 27 -17 45 -11 19 -23 42 -26 52 -4 9 -10 17 -15 17 -5 0 -9
7 -9 15 0 9 -7 18 -15 21 -8 4 -15 12 -15 20 0 8 -5 14 -10 14 -6 0 -21 11
-34 25 -13 14 -28 25 -35 25 -6 0 -11 5 -11 10 0 6 -7 10 -15 10 -8 0 -15 3
-15 8 0 8 -48 32 -64 32 -6 0 17 -18 50 -39z"/>
<path d="M1246 1093 c-6 -14 -5 -15 5 -6 7 7 10 15 7 18 -3 3 -9 -2 -12 -12z"/>
<path d="M193 1085 c0 -8 4 -12 9 -9 5 3 6 10 3 15 -9 13 -12 11 -12 -6z"/>
<path d="M4985 1090 c-3 -5 1 -10 9 -10 8 0 18 5 21 10 3 6 -1 10 -9 10 -8 0
-18 -4 -21 -10z"/>
<path d="M665 1080 c-3 -5 -1 -10 4 -10 6 0 11 5 11 10 0 6 -2 10 -4 10 -3 0
-8 -4 -11 -10z"/>
<path d="M1266 1082 c-3 -5 1 -15 8 -21 11 -10 14 -9 12 3 -3 21 -13 29 -20
18z"/>
<path d="M5390 1079 c0 -5 5 -7 10 -4 6 3 10 8 10 11 0 2 -4 4 -10 4 -5 0 -10
-5 -10 -11z"/>
<path d="M4770 1058 c-31 -34 -24 -43 10 -11 33 31 34 33 20 33 -5 0 -18 -10
-30 -22z"/>
<path d="M4955 1070 c3 -5 8 -10 11 -10 2 0 4 5 4 10 0 6 -5 10 -11 10 -5 0
-7 -4 -4 -10z"/>
<path d="M5550 1066 c0 -8 4 -17 9 -20 5 -4 7 3 4 14 -6 23 -13 26 -13 6z"/>
<path d="M5626 1073 c-10 -10 -7 -35 4 -28 6 3 10 1 10 -5 0 -7 11 -25 25 -42
13 -16 30 -47 36 -68 7 -22 16 -40 21 -40 4 0 8 -10 8 -23 0 -13 3 -27 7 -31
4 -3 8 -16 10 -29 6 -39 20 -39 18 0 -4 75 -116 289 -139 266z"/>
<path d="M320 1060 c0 -5 18 -10 39 -10 22 0 43 5 46 10 4 6 -12 10 -39 10
-25 0 -46 -4 -46 -10z"/>
<path d="M4790 1001 c-57 -56 -72 -81 -50 -81 6 0 10 4 10 10 0 18 40 62 100
109 14 11 19 20 13 21 -7 0 -40 -27 -73 -59z"/>
<path d="M4910 1050 c0 -5 -7 -10 -15 -10 -9 0 -18 -7 -21 -15 -4 -8 -10 -15
-15 -15 -12 0 -76 -68 -97 -102 -9 -16 -20 -28 -25 -28 -4 0 -5 -4 -2 -10 10
-17 19 -11 33 19 15 35 83 104 134 138 42 28 45 33 23 33 -8 0 -15 -4 -15 -10z"/>
<path d="M5460 1046 c0 -9 5 -16 10 -16 6 0 10 4 10 9 0 6 -4 13 -10 16 -5 3
-10 -1 -10 -9z"/>
<path d="M998 1043 c7 -3 16 -2 19 1 4 3 -2 6 -13 5 -11 0 -14 -3 -6 -6z"/>
<path d="M5554 1012 c43 -45 58 -49 30 -8 -9 15 -19 24 -22 21 -3 -3 -15 3
-26 12 -12 10 -3 -1 18 -25z"/>
<path d="M363 1021 c-17 -16 -30 -43 -69 -141 -25 -62 -33 -128 -18 -141 8 -6
21 -8 31 -3 16 7 15 8 -5 12 -15 2 -22 9 -18 17 2 8 8 30 12 50 13 70 60 180
83 191 30 16 34 21 18 27 -8 3 -23 -2 -34 -12z"/>
<path d="M586 1024 c-5 -14 -4 -15 9 -4 17 14 19 20 6 20 -5 0 -12 -7 -15 -16z"/>
<path d="M820 1022 c-30 -8 -80 -31 -110 -51 -30 -19 -59 -34 -65 -32 -5 1 -7
-1 -3 -5 10 -9 -12 -35 -23 -28 -5 3 -9 -5 -9 -16 0 -16 -4 -20 -16 -16 -8 3
-13 2 -10 -3 3 -5 -3 -26 -13 -47 -12 -24 -20 -33 -23 -24 -3 8 -3 3 -1 -11 2
-14 -1 -38 -7 -53 -52 -137 2 -308 132 -416 226 -190 557 -83 643 207 30 100
4 261 -52 325 -8 9 -13 21 -10 25 3 5 1 15 -5 23 -8 12 -8 11 -3 -5 4 -14 -6
-8 -34 19 -22 22 -37 44 -34 49 3 6 1 7 -5 3 -6 -4 -28 4 -49 17 -39 25 -73
39 -108 43 -81 11 -146 10 -195 -4z m272 -45 c148 -72 241 -255 209 -410 -65
-315 -422 -428 -646 -203 -172 173 -138 462 70 594 65 41 112 52 215 49 81 -2
104 -7 152 -30z"/>
<path d="M820 978 c-87 -33 -167 -89 -154 -109 4 -7 3 -10 -3 -6 -11 7 -26
-12 -63 -79 -23 -40 -20 -55 7 -32 31 26 54 30 60 10 8 -31 35 -41 88 -31 64
12 92 31 100 69 10 45 -2 49 -20 7 -21 -51 -75 -75 -75 -33 0 17 50 63 82 75
21 8 27 17 27 38 0 42 7 88 15 101 10 16 1 15 -64 -10z m26 -28 c29 0 7 -24
-51 -54 -35 -19 -72 -48 -90 -72 -22 -30 -37 -40 -57 -41 -31 0 -35 9 -13 31
8 8 15 19 15 24 0 6 7 12 15 16 8 3 15 12 15 21 0 8 3 14 8 13 15 -3 42 15 35
25 -3 6 -1 7 5 3 6 -4 21 3 33 15 12 12 29 19 40 16 13 -4 19 0 20 11 0 11 2
12 6 5 2 -7 11 -13 19 -13z m-21 -85 c-10 -5 -35 -24 -54 -41 -20 -17 -45 -34
-55 -38 -17 -6 -17 -4 -5 11 40 54 64 73 83 67 17 -4 18 -3 6 5 -14 10 -13 12
9 15 5 0 13 5 17 9 5 5 10 3 13 -4 2 -7 -4 -18 -14 -24z m-75 -104 c0 -11 -39
-25 -47 -18 -3 3 -2 10 2 16 8 13 45 15 45 2z"/>
<path d="M917 989 c16 -9 23 -24 28 -63 8 -57 40 -139 61 -157 17 -14 134 -13
148 1 5 5 24 10 41 11 16 0 23 3 15 6 -8 3 -35 26 -60 51 -45 44 -133 92 -169
92 -40 0 -22 49 18 50 11 0 10 -3 -3 -13 -16 -12 -13 -13 19 -9 29 3 36 1 30
-8 -5 -8 -4 -11 3 -7 15 10 43 -3 35 -16 -3 -5 -1 -7 5 -3 6 3 22 1 37 -6 19
-8 22 -14 13 -21 -9 -6 -8 -7 4 -4 9 3 22 -2 30 -10 11 -15 11 -16 -5 -10 -11
4 -16 3 -12 -4 4 -6 14 -8 22 -5 11 5 13 2 9 -9 -3 -9 -2 -14 3 -11 5 3 12 -1
15 -10 4 -10 2 -13 -6 -8 -7 4 -8 3 -4 -5 4 -6 21 -18 37 -27 l30 -15 -35 52
c-59 87 -168 151 -281 163 -41 5 -46 4 -28 -5z m131 -98 c50 -25 102 -72 102
-90 0 -11 -4 -10 -19 5 -35 36 -71 64 -84 64 -8 0 -17 3 -21 8 -7 7 -11 8 -37
11 -13 1 -2 21 12 21 5 0 27 -9 47 -19z m2 -46 c31 -16 70 -53 70 -65 0 -13
-66 -13 -91 0 -19 11 -49 59 -49 80 0 12 28 6 70 -15z"/>
<path d="M1016 826 c6 -15 34 -30 34 -18 0 4 -9 13 -20 19 -16 11 -18 10 -14
-1z"/>
<path d="M881 852 c-1 -30 16 -62 33 -62 15 0 26 21 26 48 -1 15 -3 14 -15 -2
-16 -22 -16 -22 -32 14 l-12 25 0 -23z"/>
<path d="M853 750 c-17 -12 -38 -31 -46 -44 -17 -25 -26 -91 -14 -102 4 -4 7
5 7 19 0 15 5 27 11 27 6 0 8 8 5 18 -6 21 19 57 33 47 6 -3 11 0 11 8 0 19
47 40 54 24 3 -9 7 -9 14 2 7 10 14 11 31 2 11 -7 21 -16 21 -22 0 -6 5 -7 11
-4 18 12 50 -26 43 -49 -6 -18 -5 -19 9 -7 12 9 14 18 8 30 -15 27 -49 53 -61
46 -6 -3 -9 -1 -8 7 5 23 -92 22 -129 -2z"/>
<path d="M1190 729 c-36 -15 -75 -28 -87 -29 -13 0 -23 -4 -23 -9 0 -19 33
-20 71 -1 22 12 44 18 48 15 5 -3 12 1 15 7 5 10 7 10 12 1 3 -7 11 -10 18 -7
23 9 13 -153 -12 -203 -12 -23 -22 -50 -22 -60 0 -12 -3 -14 -8 -6 -5 7 -11
-1 -18 -23 -11 -34 1 -50 13 -16 3 9 12 24 19 32 7 9 25 46 39 83 21 58 24 80
21 149 -3 44 -8 84 -13 88 -4 4 -37 -5 -73 -21z"/>
<path d="M625 740 c-8 -13 5 -13 25 0 13 8 13 10 -2 10 -9 0 -20 -4 -23 -10z"/>
<path d="M900 723 c-8 -3 -23 -13 -33 -22 -23 -19 -59 -91 -46 -91 5 0 9 5 9
10 0 6 5 10 10 10 6 0 10 -7 10 -15 0 -24 46 -65 73 -65 33 0 77 36 77 63 0
21 -1 21 -13 -3 -16 -32 -54 -51 -81 -41 -29 11 -59 65 -51 91 4 12 21 28 38
36 46 22 83 6 107 -48 14 -31 20 -37 20 -21 0 67 -62 117 -120 96z"/>
<path d="M1068 723 c7 -3 16 -2 19 1 4 3 -2 6 -13 5 -11 0 -14 -3 -6 -6z"/>
<path d="M570 701 c0 -10 16 -27 54 -59 9 -7 16 -23 16 -36 0 -45 31 -127 60
-156 29 -29 39 -47 22 -36 -5 3 -6 -9 -4 -25 5 -35 18 -27 26 15 3 16 10 32
16 36 16 10 31 109 20 130 -13 24 -79 75 -86 67 -4 -3 -4 -17 0 -31 5 -19 14
-25 39 -28 30 -3 32 -5 34 -44 2 -45 -19 -86 -35 -69 -22 22 -52 88 -58 126
-8 47 3 59 53 59 40 0 55 20 16 20 -28 1 -123 22 -155 35 -11 4 -18 3 -18 -4z
m100 -41 c0 -5 -6 -10 -14 -10 -8 0 -18 5 -21 10 -3 6 3 10 14 10 12 0 21 -4
21 -10z"/>
<path d="M750 706 c0 -9 30 -14 35 -6 4 6 -3 10 -14 10 -12 0 -21 -2 -21 -4z"/>
<path d="M1174 679 c-32 -9 -94 -70 -94 -91 0 -6 7 -34 16 -62 16 -51 55 -93
74 -81 27 17 54 93 58 168 5 84 5 83 -54 66z m40 -57 c-5 -4 -9 -20 -8 -37 1
-31 -34 -115 -48 -115 -12 0 -10 7 11 48 17 34 28 84 31 137 1 18 2 18 13 -3
7 -15 7 -26 1 -30z m-38 -8 c-6 -48 -33 -114 -46 -114 -10 0 -20 37 -20 74 0
29 42 86 63 86 6 0 7 -19 3 -46z"/>
<path d="M890 655 c-17 -20 -5 -62 21 -70 24 -8 59 19 59 45 0 37 -55 55 -80
25z m44 -11 c25 -10 19 -31 -9 -31 -30 0 -43 16 -24 28 17 11 14 10 33 3z"/>
<path d="M1052 645 c1 -14 6 -25 10 -25 4 0 8 11 8 25 0 14 -4 25 -10 25 -5 0
-9 -11 -8 -25z"/>
<path d="M582 630 c0 -14 2 -19 5 -12 2 6 2 18 0 25 -3 6 -5 1 -5 -13z"/>
<path d="M595 599 c-4 -6 -5 -12 -2 -15 2 -3 7 2 10 11 7 17 1 20 -8 4z"/>
<path d="M999 569 c-30 -32 -42 -39 -74 -39 -30 0 -44 7 -71 36 -19 19 -38 33
-43 29 -15 -9 50 -71 86 -83 44 -14 108 12 124 51 6 15 15 27 20 27 5 0 9 5 9
10 0 18 -14 9 -51 -31z"/>
<path d="M715 550 c3 -5 10 -10 16 -10 5 0 9 5 9 10 0 6 -7 10 -16 10 -8 0
-12 -4 -9 -10z"/>
<path d="M744 532 c-6 -4 -13 -15 -17 -24 -5 -13 -1 -18 12 -18 14 0 18 7 17
25 0 14 -1 25 -1 25 0 0 -5 -4 -11 -8z"/>
<path d="M1034 524 c-12 -10 -14 -14 -4 -11 8 2 23 0 33 -5 20 -10 23 4 4 21
-10 8 -19 7 -33 -5z"/>
<path d="M801 498 c-11 -18 -10 -18 9 -8 16 9 25 8 36 -1 13 -11 12 -15 -12
-35 -16 -15 -24 -29 -20 -39 3 -9 2 -14 -3 -11 -9 6 -50 -34 -50 -49 0 -5 -8
-12 -18 -16 -34 -13 13 -22 48 -10 39 13 50 6 23 -15 -20 -16 -13 -16 30 2 8
3 19 -3 25 -13 9 -18 18 -19 82 -14 9 0 20 8 23 17 5 12 1 14 -17 8 -12 -4
-23 -11 -25 -15 -2 -5 -8 -9 -14 -9 -6 0 -4 8 4 18 9 9 13 23 11 30 -4 9 5 11
35 6 38 -6 112 10 112 24 -1 4 -9 17 -20 30 -16 20 -22 21 -40 12 -27 -15
-109 -15 -123 -1 -7 7 -6 15 3 26 15 17 81 20 97 4 6 -6 17 -9 25 -7 19 7 -45
38 -77 38 -14 0 -42 -11 -62 -25 -20 -13 -39 -23 -41 -21 -7 8 23 46 37 46 8
0 4 7 -10 18 -38 29 -54 32 -68 10z m93 -112 c34 -45 35 -70 1 -62 -67 17 -75
24 -65 52 21 55 28 56 64 10z m144 -11 c-4 -11 -38 -15 -53 -7 -5 4 1 9 15 13
30 8 43 7 38 -6z"/>
<path d="M607 504 c7 -3 10 -11 7 -18 -3 -7 3 -22 13 -32 10 -11 15 -15 12 -9
-3 5 -5 19 -5 30 1 21 -12 35 -29 34 -5 0 -5 -3 2 -5z"/>
<path d="M1000 495 c0 -3 23 -28 50 -57 30 -32 49 -60 46 -70 -2 -11 4 -18 21
-23 48 -12 41 7 -29 80 -64 67 -88 86 -88 70z"/>
<path d="M1150 414 c0 -8 5 -12 10 -9 6 3 10 10 10 16 0 5 -4 9 -10 9 -5 0
-10 -7 -10 -16z"/>
<path d="M655 410 c3 -5 8 -10 11 -10 2 0 4 5 4 10 0 6 -5 10 -11 10 -5 0 -7
-4 -4 -10z"/>
<path d="M684 397 c-8 -9 -7 -16 3 -25 11 -11 13 -8 13 13 0 28 -1 29 -16 12z"/>
<path d="M1070 329 c0 -6 -6 -9 -14 -6 -7 3 -23 -1 -34 -8 -10 -8 -22 -11 -26
-8 -3 3 -6 1 -6 -6 0 -13 60 -6 93 11 21 11 22 28 2 28 -8 0 -15 -5 -15 -11z"/>
<path d="M840 300 c0 -5 5 -10 10 -10 6 0 10 5 10 10 0 6 -4 10 -10 10 -5 0
-10 -4 -10 -10z"/>
<path d="M1328 1020 c13 -10 22 -20 20 -22 -4 -5 45 -58 54 -58 13 0 9 20 -4
20 -7 1 -25 19 -40 40 -15 22 -33 40 -40 40 -7 -1 -3 -9 10 -20z"/>
<path d="M637 1023 c-12 -12 -7 -22 8 -17 8 4 15 10 15 15 0 11 -14 12 -23 2z"/>
<path d="M5490 1020 c0 -5 5 -10 10 -10 6 0 10 5 10 10 0 6 -4 10 -10 10 -5 0
-10 -4 -10 -10z"/>
<path d="M83 1005 c0 -8 4 -12 9 -9 5 3 6 10 3 15 -9 13 -12 11 -12 -6z"/>
<path d="M413 997 c-52 -56 -100 -207 -84 -262 l9 -30 1 33 c1 17 4 32 9 32 4
0 8 10 9 23 4 54 9 77 16 77 4 0 7 7 7 15 0 8 5 15 11 15 5 0 7 5 4 10 -4 6 5
31 20 56 30 51 29 65 -2 31z"/>
<path d="M4698 968 c-38 -59 -84 -175 -74 -185 3 -3 6 1 6 10 0 9 4 17 9 17 5
0 12 17 16 37 7 40 28 76 38 68 4 -3 5 -2 2 2 -3 3 7 26 21 50 37 64 22 65
-18 1z"/>
<path d="M305 1000 c3 -5 8 -10 11 -10 2 0 4 5 4 10 0 6 -5 10 -11 10 -5 0 -7
-4 -4 -10z"/>
<path d="M605 1000 c-3 -5 -1 -10 4 -10 6 0 11 5 11 10 0 6 -2 10 -4 10 -3 0
-8 -4 -11 -10z"/>
<path d="M1205 1000 c3 -5 13 -10 21 -10 8 0 12 5 9 10 -3 6 -13 10 -21 10 -8
0 -12 -4 -9 -10z"/>
<path d="M5095 999 c-16 -5 -37 -6 -45 -3 -8 3 -11 2 -8 -2 4 -3 -19 -23 -50
-44 -31 -20 -65 -47 -76 -58 -10 -12 -23 -19 -29 -15 -5 3 -7 1 -4 -4 4 -6 -2
-21 -13 -33 -11 -13 -20 -27 -20 -32 0 -5 -5 -6 -12 -2 -6 4 -8 3 -5 -3 3 -5
-2 -32 -12 -59 -22 -59 -27 -172 -10 -240 32 -134 143 -248 279 -288 184 -55
381 39 468 223 31 65 36 83 35 150 0 119 -5 165 -14 149 -7 -10 -9 -8 -10 7
-1 11 -1 26 0 33 1 6 -3 12 -10 12 -7 0 -9 10 -7 24 3 14 1 31 -4 38 -7 10 -8
9 -4 -4 3 -10 1 -20 -4 -23 -6 -4 -10 -2 -10 4 0 15 -85 97 -128 124 -82 52
-220 73 -307 46z m259 -42 c154 -71 250 -252 218 -414 -28 -136 -102 -231
-232 -292 -73 -34 -197 -36 -280 -3 -80 31 -162 108 -202 190 -31 62 -33 74
-33 167 0 91 3 106 31 165 47 100 135 177 236 205 77 22 192 14 262 -18z"/>
<path d="M5185 972 c-11 -2 -25 -9 -32 -14 -7 -5 -16 -7 -21 -4 -13 8 -102
-23 -102 -36 0 -5 -4 -7 -9 -4 -9 6 -60 -29 -74 -51 -4 -6 -13 -18 -20 -25 -7
-7 -23 -28 -36 -46 l-23 -32 37 17 c20 10 32 19 26 21 -6 2 -11 9 -11 15 0 5
3 7 7 4 7 -8 39 34 35 47 -2 5 6 6 17 3 15 -3 18 -1 14 11 -4 9 -2 13 4 9 6
-4 18 0 26 8 9 8 20 15 26 15 6 0 11 4 11 10 0 5 7 6 17 3 11 -4 14 -3 9 5 -7
11 15 18 39 12 6 -2 18 -2 28 -2 20 1 23 -16 5 -23 -105 -36 -130 -50 -174
-95 -27 -28 -55 -50 -62 -50 -7 0 -11 -4 -8 -9 3 -4 16 -6 29 -4 14 3 29 -2
36 -11 9 -11 30 -16 66 -16 48 0 56 3 83 34 30 34 34 47 48 136 3 24 14 50 23
57 19 14 13 21 -14 15z m-49 -127 c-5 -62 -36 -95 -88 -95 -47 0 -43 9 22 51
28 18 50 39 50 48 0 13 -2 13 -9 2 -5 -8 -14 -10 -22 -6 -8 5 -11 5 -7 0 10
-10 -59 -58 -72 -50 -6 3 -7 -1 -3 -10 4 -13 1 -16 -12 -14 -10 2 -19 9 -19
14 0 17 96 84 112 77 11 -4 13 -2 7 8 -6 10 -4 12 8 7 10 -3 17 -2 17 3 0 6 5
10 10 10 6 0 9 -19 6 -45z"/>
<path d="M5246 944 c4 -14 8 -47 9 -72 3 -63 3 -62 20 -62 19 0 85 -58 85 -76
0 -8 -4 -14 -9 -14 -12 0 -67 52 -73 70 -3 8 -8 12 -12 8 -10 -9 21 -66 42
-76 51 -26 152 -19 152 11 0 9 -31 54 -70 100 -8 10 -39 30 -68 44 -51 24 -63
45 -29 51 22 4 98 -29 91 -40 -3 -4 3 -5 12 -1 13 5 15 3 9 -7 -6 -10 -4 -12
8 -7 11 4 14 2 11 -8 -3 -7 3 -16 15 -20 11 -3 20 -9 18 -13 -1 -4 9 -18 22
-31 23 -23 23 -25 6 -38 -11 -7 -14 -13 -8 -13 6 0 25 -12 42 -26 38 -32 38
-28 4 38 -51 94 -105 143 -193 177 -44 17 -82 31 -85 31 -3 0 -2 -12 1 -26z
m64 -84 c0 -5 7 -10 15 -10 8 0 15 -4 15 -10 0 -5 5 -10 11 -10 19 0 39 -28
33 -47 -5 -15 -4 -15 5 -3 9 13 12 12 25 -5 21 -27 20 -35 -5 -35 -11 0 -32
14 -46 30 -14 17 -38 37 -54 46 -31 15 -40 54 -14 54 8 0 15 -4 15 -10z"/>
<path d="M5186 822 c-5 -15 -3 -28 4 -37 26 -31 51 -11 49 38 0 19 -2 18 -11
-5 -5 -16 -13 -28 -18 -28 -5 0 -10 12 -12 28 -3 26 -4 27 -12 4z"/>
<path d="M5132 730 c-30 -19 -74 -78 -78 -106 -1 -6 2 -18 7 -25 7 -11 9 -9
10 6 1 11 1 26 0 34 -2 7 2 10 8 7 5 -4 12 -2 16 4 3 5 1 10 -6 10 -7 0 -5 8
6 20 10 11 22 20 27 20 5 0 16 7 25 15 22 22 123 9 123 -16 0 -5 7 -9 15 -9
14 0 35 -56 35 -92 0 -10 5 -18 10 -18 13 0 13 25 0 71 -22 78 -131 122 -198
79z"/>
<path d="M4856 693 c-9 -58 -6 -133 7 -183 11 -43 72 -160 82 -160 12 0 -9 57
-30 80 -12 14 -20 31 -18 38 3 6 1 12 -4 12 -6 0 -10 6 -10 13 -1 6 -5 33 -11
60 -11 54 -4 147 9 125 5 -7 9 -40 10 -73 1 -82 18 -127 52 -136 34 -9 34 -4
1 24 -21 18 -27 34 -31 85 -5 51 -3 62 9 62 11 0 17 -16 22 -57 4 -33 15 -69
26 -83 24 -30 25 -17 5 40 -15 43 -20 90 -9 90 3 0 14 -10 25 -22 27 -34 26
-108 -3 -136 -13 -11 -26 -21 -30 -21 -5 -1 -14 -1 -20 -1 -8 -1 -6 -6 5 -14
9 -7 17 -26 18 -42 l1 -29 8 32 c4 18 16 41 28 50 22 20 42 72 42 111 0 30
-69 102 -98 102 -27 0 -52 10 -52 21 0 14 23 11 78 -12 32 -13 58 -18 69 -14
17 8 16 8 -2 13 -11 2 -53 17 -93 33 -40 16 -74 29 -76 29 -2 0 -6 -17 -10
-37z"/>
<path d="M5470 721 c0 -5 9 -11 21 -14 16 -4 18 -3 8 9 -13 16 -29 19 -29 5z"/>
<path d="M5038 698 c9 -9 15 -9 24 0 9 9 7 12 -12 12 -19 0 -21 -3 -12 -12z"/>
<path d="M5136 678 c-15 -14 -28 -38 -31 -58 l-5 -35 15 32 c28 60 91 81 133
46 26 -22 29 -41 12 -75 -26 -55 -88 -58 -124 -6 -12 16 -16 18 -16 7 0 -26
44 -59 78 -59 34 0 72 29 72 55 0 17 16 20 25 5 10 -16 -21 -57 -56 -75 -44
-23 -82 -11 -122 37 -22 26 -37 37 -41 29 -4 -6 -3 -11 2 -11 6 0 19 -16 31
-35 27 -46 64 -60 115 -45 61 18 111 93 76 115 -5 3 -10 14 -10 24 0 9 -13 29
-28 44 -36 35 -90 37 -126 5z"/>
<path d="M5340 680 c0 -5 7 -10 15 -10 8 0 15 5 15 10 0 6 -7 10 -15 10 -8 0
-15 -4 -15 -10z"/>
<path d="M5445 662 c-90 -17 -93 -18 -79 -32 6 -6 22 -6 44 0 19 5 48 11 63
14 25 4 27 3 16 -10 -7 -9 -23 -14 -36 -11 -12 2 -24 1 -25 -2 -2 -4 -20 -17
-40 -30 -36 -21 -65 -78 -48 -91 4 -3 6 -16 5 -30 -3 -35 3 -41 25 -27 23 13
26 33 8 40 -7 3 -4 6 6 6 11 1 28 8 38 17 14 14 21 14 33 4 13 -11 13 -16 -1
-44 -9 -17 -25 -41 -37 -53 -18 -20 -22 -21 -41 -8 -33 24 -37 17 -11 -20 23
-35 43 -44 37 -18 -2 7 2 13 8 13 5 0 10 -10 10 -22 0 -20 2 -20 30 8 16 16
30 34 30 39 0 7 -3 7 -8 0 -4 -5 -15 -16 -24 -23 -15 -12 -17 -11 -15 8 1 12
11 33 24 46 12 13 20 24 17 24 -3 0 2 7 11 16 12 12 13 19 5 24 -8 5 -9 26 -4
69 6 56 9 61 30 61 13 0 24 4 24 9 0 5 3 16 6 25 7 19 6 19 -101 -2z m-9 -94
c-10 -55 -76 -89 -84 -45 -3 12 4 17 20 17 29 0 48 17 48 42 0 10 5 18 11 18
8 0 9 -11 5 -32z m34 15 c0 -10 -5 -25 -10 -33 -7 -11 -10 -7 -10 18 0 17 5
32 10 32 6 0 10 -8 10 -17z m-100 -123 c0 -5 -2 -10 -4 -10 -3 0 -8 5 -11 10
-3 6 -1 10 4 10 6 0 11 -4 11 -10z"/>
<path d="M5166 634 c-9 -8 -16 -22 -16 -29 0 -7 7 -21 16 -29 30 -30 74 -13
74 29 0 42 -44 59 -74 29z m62 -31 c2 -9 -7 -13 -27 -13 -30 0 -39 9 -24 24
11 10 46 3 51 -11z"/>
<path d="M5525 576 c0 -13 4 -28 9 -33 5 -4 6 -3 2 4 -3 6 -2 14 4 18 14 9 12
35 -3 35 -7 0 -13 -11 -12 -24z"/>
<path d="M5511 494 c-6 -20 -18 -45 -27 -55 -19 -21 -10 -27 10 -6 16 16 29
46 32 75 4 34 -4 26 -15 -14z"/>
<path d="M5049 488 c-10 -19 -10 -21 2 -12 18 13 41 12 46 -2 2 -6 -28 -41
-66 -78 -52 -49 -66 -69 -55 -73 8 -3 27 0 41 6 19 9 34 9 58 1 30 -10 52 -36
41 -47 -8 -9 -46 8 -41 18 3 5 -2 6 -11 2 -13 -5 -15 -3 -9 7 6 10 4 12 -9 7
-10 -4 -23 -7 -29 -7 -17 -1 62 -35 98 -44 22 -5 26 -4 15 4 -13 8 -13 10 1
10 8 0 20 -5 27 -12 8 -8 15 -8 24 -1 22 18 99 27 108 13 4 -7 13 -9 19 -5 9
5 9 10 0 21 -13 16 -50 18 -95 5 -36 -10 -84 -4 -84 12 0 18 34 36 67 37 18 0
44 5 59 12 22 10 28 10 39 -6 8 -10 12 -23 9 -30 -6 -15 59 -37 76 -26 10 6 9
10 -1 16 -19 12 -69 80 -69 93 0 6 -9 16 -20 23 -11 7 -20 18 -20 25 0 16 32
17 48 1 13 -13 15 -3 4 24 -7 17 -9 16 -40 -2 l-32 -20 20 -32 c30 -50 24 -53
-22 -14 -63 54 -101 48 -174 -30 -23 -24 -48 -44 -55 -44 -13 0 18 38 77 95
30 29 31 32 15 50 -23 28 -48 29 -62 3z m166 -70 c14 -6 25 -15 25 -20 0 -9
-74 -11 -109 -1 l-23 6 23 13 c30 17 51 17 84 2z m-67 -48 c7 0 10 -5 7 -10
-4 -6 -11 -8 -16 -5 -5 4 -9 2 -9 -3 0 -5 -13 -9 -29 -9 -26 0 -28 2 -18 19 8
12 19 17 32 14 11 -3 26 -6 33 -6z"/>
<path d="M5223 270 c-13 -5 -23 -11 -23 -13 0 -8 50 5 56 14 6 11 -4 11 -33
-1z"/>
<path d="M5340 1000 c8 -5 20 -10 25 -10 6 0 3 5 -5 10 -8 5 -19 10 -25 10 -5
0 -3 -5 5 -10z"/>
<path d="M5520 1000 c0 -5 5 -10 11 -10 5 0 7 5 4 10 -3 6 -8 10 -11 10 -2 0
-4 -4 -4 -10z"/>
<path d="M665 980 c-3 -6 1 -7 9 -4 18 7 21 14 7 14 -6 0 -13 -4 -16 -10z"/>
<path d="M5950 980 c0 -5 5 -10 11 -10 5 0 7 5 4 10 -3 6 -8 10 -11 10 -2 0
-4 -4 -4 -10z"/>
<path d="M530 969 c0 -5 5 -7 10 -4 6 3 10 8 10 11 0 2 -4 4 -10 4 -5 0 -10
-5 -10 -11z"/>
<path d="M1430 976 c0 -4 12 -33 26 -63 14 -31 30 -81 36 -110 6 -29 15 -53
19 -53 12 0 13 -5 -16 95 -14 48 -35 99 -45 113 -11 13 -20 22 -20 18z"/>
<path d="M281 944 c0 -11 3 -14 6 -6 3 7 2 16 -1 19 -3 4 -6 -2 -5 -13z"/>
<path d="M1261 931 c-8 -5 -9 -11 -3 -15 5 -3 12 1 16 9 6 17 6 18 -13 6z"/>
<path d="M1310 920 c0 -5 5 -10 11 -10 5 0 7 5 4 10 -3 6 -8 10 -11 10 -2 0
-4 -4 -4 -10z"/>
<path d="M510 881 c-12 -24 -13 -34 -1 -27 9 6 22 46 15 46 -2 0 -8 -9 -14
-19z"/>
<path d="M1325 890 c3 -5 8 -10 11 -10 2 0 4 5 4 10 0 6 -5 10 -11 10 -5 0 -7
-4 -4 -10z"/>
<path d="M1430 883 c0 -13 5 -23 10 -23 13 0 13 11 0 30 -8 12 -10 11 -10 -7z"/>
<path d="M5657 880 c-3 -11 -1 -20 4 -20 5 0 9 9 9 20 0 11 -2 20 -4 20 -2 0
-6 -9 -9 -20z"/>
<path d="M5681 884 c0 -11 3 -14 6 -6 3 7 2 16 -1 19 -3 4 -6 -2 -5 -13z"/>
<path d="M460 869 c0 -5 5 -7 10 -4 6 3 10 8 10 11 0 2 -4 4 -10 4 -5 0 -10
-5 -10 -11z"/>
<path d="M1315 860 c-3 -6 1 -7 9 -4 9 3 16 1 16 -6 0 -6 5 -8 11 -4 8 4 7 9
-2 15 -18 11 -26 11 -34 -1z"/>
<path d="M1451 841 c-1 -23 22 -95 37 -116 l14 -20 -5 20 c-14 49 -46 129 -46
116z"/>
<path d="M4675 840 c-3 -5 -1 -10 4 -10 6 0 11 5 11 10 0 6 -2 10 -4 10 -3 0
-8 -4 -11 -10z"/>
<path d="M4720 834 c0 -8 5 -12 10 -9 6 3 10 10 10 16 0 5 -4 9 -10 9 -5 0
-10 -7 -10 -16z"/>
<path d="M1803 800 c0 -25 2 -35 4 -22 2 12 2 32 0 45 -2 12 -4 2 -4 -23z"/>
<path d="M5680 822 c0 -14 6 -22 16 -22 14 0 15 3 3 18 -7 9 -15 19 -16 21 -2
2 -3 -5 -3 -17z"/>
<path d="M464 794 c-8 -20 -13 -41 -11 -47 2 -7 11 10 20 36 19 55 13 63 -9
11z"/>
<path d="M436 805 c-3 -9 -6 -24 -5 -33 0 -9 5 -4 10 12 9 32 6 48 -5 21z"/>
<path d="M1360 816 c0 -2 8 -10 18 -17 15 -13 16 -12 3 4 -13 16 -21 21 -21
13z"/>
<path d="M4657 793 c-5 -26 -2 -42 7 -32 9 11 15 59 7 59 -5 0 -11 -12 -14
-27z"/>
<path d="M4700 800 c0 -5 5 -10 10 -10 6 0 10 5 10 10 0 6 -4 10 -10 10 -5 0
-10 -4 -10 -10z"/>
<path d="M1410 791 c0 -6 4 -12 9 -15 5 -3 12 -30 16 -61 3 -30 11 -58 17 -61
7 -5 9 2 4 22 -4 16 -9 46 -11 66 -2 21 -6 42 -10 48 -8 13 -25 13 -25 1z"/>
<path d="M1321 774 c0 -11 3 -14 6 -6 3 7 2 16 -1 19 -3 4 -6 -2 -5 -13z"/>
<path d="M4686 764 c-8 -21 -8 -24 3 -24 12 0 22 28 12 35 -5 3 -12 -2 -15
-11z"/>
<path d="M521 754 c0 -11 3 -14 6 -6 3 7 2 16 -1 19 -3 4 -6 -2 -5 -13z"/>
<path d="M1385 760 c3 -5 8 -10 11 -10 2 0 4 5 4 10 0 6 -5 10 -11 10 -5 0 -7
-4 -4 -10z"/>
<path d="M4610 750 c0 -5 5 -10 11 -10 5 0 7 5 4 10 -3 6 -8 10 -11 10 -2 0
-4 -4 -4 -10z"/>
<path d="M5602 740 c0 -14 2 -19 5 -12 2 6 2 18 0 25 -3 6 -5 1 -5 -13z"/>
<path d="M4636 715 c-4 -20 -4 -40 -1 -45 3 -6 2 -10 -3 -10 -8 0 -7 -88 1
-96 2 -2 8 39 13 91 9 93 3 129 -10 60z"/>
<path d="M1515 712 c6 -28 4 -31 -14 -27 -12 2 -21 -1 -21 -6 0 -5 8 -9 18 -7
10 2 17 -3 17 -14 0 -10 6 -23 13 -30 9 -9 12 -9 12 0 0 7 -5 12 -11 12 -8 0
-8 5 1 15 7 8 8 15 3 15 -5 0 -8 13 -5 29 2 16 -1 32 -8 36 -9 6 -10 -1 -5
-23z"/>
<path d="M441 714 c0 -11 3 -14 6 -6 3 7 2 16 -1 19 -3 4 -6 -2 -5 -13z"/>
<path d="M1401 714 c0 -11 3 -14 6 -6 3 7 2 16 -1 19 -3 4 -6 -2 -5 -13z"/>
<path d="M4676 721 c-18 -28 -5 -254 15 -267 5 -3 5 10 1 28 -4 18 -7 81 -6
141 0 59 -1 107 -2 107 -2 0 -5 -4 -8 -9z"/>
<path d="M270 711 c0 -5 5 -13 10 -16 6 -3 10 -2 10 4 0 5 -4 13 -10 16 -5 3
-10 2 -10 -4z"/>
<path d="M4600 711 c0 -5 -3 -18 -6 -28 -5 -16 -4 -16 10 1 18 23 20 36 6 36
-5 0 -10 -4 -10 -9z"/>
<path d="M320 681 c0 -25 6 -27 13 -6 4 8 2 17 -3 20 -6 4 -10 -3 -10 -14z"/>
<path d="M4005 689 c-148 -4 -472 -9 -720 -13 -779 -11 -1593 -27 -1619 -32
-45 -8 -24 -14 35 -9 66 5 402 11 1099 20 223 3 473 7 555 10 83 3 365 8 628
11 262 4 477 10 477 13 0 8 -118 8 -455 0z"/>
<path d="M4498 683 c18 -2 45 -2 60 0 15 2 0 4 -33 4 -33 0 -45 -2 -27 -4z"/>
<path d="M260 644 c0 -8 5 -12 10 -9 6 4 8 11 5 16 -9 14 -15 11 -15 -7z"/>
<path d="M1485 650 c-3 -5 -1 -18 4 -27 9 -16 10 -14 11 10 0 28 -5 34 -15 17z"/>
<path d="M4088 653 c12 -2 32 -2 45 0 12 2 2 4 -23 4 -25 0 -35 -2 -22 -4z"/>
<path d="M4183 653 c15 -2 37 -2 50 0 12 2 0 4 -28 4 -27 0 -38 -2 -22 -4z"/>
<path d="M4268 653 c6 -2 18 -2 25 0 6 3 1 5 -13 5 -14 0 -19 -2 -12 -5z"/>
<path d="M4318 653 c6 -2 18 -2 25 0 6 3 1 5 -13 5 -14 0 -19 -2 -12 -5z"/>
<path d="M4368 653 c7 -3 16 -2 19 1 4 3 -2 6 -13 5 -11 0 -14 -3 -6 -6z"/>
<path d="M4590 649 c0 -5 5 -7 10 -4 6 3 10 8 10 11 0 2 -4 4 -10 4 -5 0 -10
-5 -10 -11z"/>
<path d="M1590 640 c-12 -8 -10 -10 8 -10 13 0 20 4 17 10 -7 12 -6 12 -25 0z"/>
<path d="M3502 636 c7 -8 15 -12 17 -11 5 6 -10 25 -20 25 -5 0 -4 -6 3 -14z"/>
<path d="M3563 643 c9 -2 23 -2 30 0 6 3 -1 5 -18 5 -16 0 -22 -2 -12 -5z"/>
<path d="M3690 646 c0 -2 16 -6 35 -8 19 -2 35 0 35 4 0 4 -16 8 -35 8 -19 0
-35 -2 -35 -4z"/>
<path d="M3778 643 c7 -3 16 -2 19 1 4 3 -2 6 -13 5 -11 0 -14 -3 -6 -6z"/>
<path d="M3853 643 c9 -2 23 -2 30 0 6 3 -1 5 -18 5 -16 0 -22 -2 -12 -5z"/>
<path d="M3918 643 c6 -2 18 -2 25 0 6 3 1 5 -13 5 -14 0 -19 -2 -12 -5z"/>
<path d="M3968 643 c6 -2 18 -2 25 0 6 3 1 5 -13 5 -14 0 -19 -2 -12 -5z"/>
<path d="M321 618 c0 -14 -4 -35 -7 -45 -5 -17 -5 -17 6 0 6 10 9 30 7 45 l-4
27 -2 -27z"/>
<path d="M1444 616 c0 -13 4 -22 9 -19 10 6 9 31 -2 37 -5 3 -8 -5 -7 -18z"/>
<path d="M3168 633 c7 -3 16 -2 19 1 4 3 -2 6 -13 5 -11 0 -14 -3 -6 -6z"/>
<path d="M3243 633 c9 -2 23 -2 30 0 6 3 -1 5 -18 5 -16 0 -22 -2 -12 -5z"/>
<path d="M3338 633 c7 -3 16 -2 19 1 4 3 -2 6 -13 5 -11 0 -14 -3 -6 -6z"/>
<path d="M3380 630 c-9 -6 -10 -10 -3 -10 6 0 15 5 18 10 8 12 4 12 -15 0z"/>
<path d="M2818 623 c6 -2 18 -2 25 0 6 3 1 5 -13 5 -14 0 -19 -2 -12 -5z"/>
<path d="M4580 619 c0 -5 5 -7 10 -4 6 3 10 8 10 11 0 2 -4 4 -10 4 -5 0 -10
-5 -10 -11z"/>
<path d="M2033 613 c9 -2 25 -2 35 0 9 3 1 5 -18 5 -19 0 -27 -2 -17 -5z"/>
<path d="M2113 613 c9 -2 23 -2 30 0 6 3 -1 5 -18 5 -16 0 -22 -2 -12 -5z"/>
<path d="M2208 613 c6 -2 18 -2 25 0 6 3 1 5 -13 5 -14 0 -19 -2 -12 -5z"/>
<path d="M2328 613 c7 -3 16 -2 19 1 4 3 -2 6 -13 5 -11 0 -14 -3 -6 -6z"/>
<path d="M245 600 c-3 -6 1 -7 9 -4 18 7 21 14 7 14 -6 0 -13 -4 -16 -10z"/>
<path d="M5650 600 c0 -5 5 -10 10 -10 6 0 10 5 10 10 0 6 -4 10 -10 10 -5 0
-10 -4 -10 -10z"/>
<path d="M1488 583 c7 -3 16 -2 19 1 4 3 -2 6 -13 5 -11 0 -14 -3 -6 -6z"/>
<path d="M170 570 c0 -5 5 -10 11 -10 5 0 7 5 4 10 -3 6 -8 10 -11 10 -2 0 -4
-4 -4 -10z"/>
<path d="M1445 570 c3 -5 8 -10 11 -10 2 0 4 5 4 10 0 6 -5 10 -11 10 -5 0 -7
-4 -4 -10z"/>
<path d="M4570 548 c0 -16 5 -28 10 -28 13 0 13 20 0 40 -8 12 -10 9 -10 -12z"/>
<path d="M1439 548 c0 -2 -2 -10 -4 -18 -1 -8 -6 -28 -10 -45 -5 -21 -4 -27 3
-20 11 10 25 85 16 85 -2 0 -4 -1 -5 -2z"/>
<path d="M4630 535 c0 -8 4 -15 10 -15 5 0 7 7 4 15 -4 8 -8 15 -10 15 -2 0
-4 -7 -4 -15z"/>
<path d="M1473 525 c-3 -9 -3 -19 1 -22 3 -4 6 -1 6 6 0 7 4 9 10 6 6 -3 7 1
4 9 -8 20 -13 20 -21 1z"/>
<path d="M5640 530 c0 -5 5 -10 10 -10 6 0 10 5 10 10 0 6 -4 10 -10 10 -5 0
-10 -4 -10 -10z"/>
<path d="M1530 520 c0 -5 5 -10 11 -10 5 0 7 5 4 10 -3 6 -8 10 -11 10 -2 0
-4 -4 -4 -10z"/>
<path d="M4485 514 c-15 -12 -37 -13 -95 -8 -156 13 -217 11 -229 -8 -7 -12
-24 -18 -45 -18 -19 0 -38 -5 -42 -12 -5 -7 -3 -8 6 -3 9 6 11 4 5 -5 -7 -11
-10 -10 -19 1 -9 12 -39 15 -156 12 -249 -4 -833 -12 -1390 -19 -315 -3 -540
-10 -547 -15 -7 -7 -12 -6 -15 3 -3 9 -16 10 -59 1 -30 -7 -67 -14 -84 -17
-27 -5 -27 -5 -5 3 22 8 20 9 -17 10 -26 1 -43 -4 -43 -10 0 -8 -5 -7 -15 1
-12 10 -19 10 -27 2 -15 -15 -31 -16 -23 -1 5 7 -8 8 -40 5 -38 -5 -52 -2 -74
15 -14 11 -29 28 -33 37 -5 13 -7 12 -7 -6 -1 -13 -5 -21 -9 -18 -4 2 -14 1
-21 -3 -8 -5 2 -11 29 -15 22 -3 43 -13 46 -21 4 -8 12 -15 20 -15 8 0 14 -5
14 -11 0 -8 37 -9 128 -3 70 4 137 7 150 7 12 -1 22 5 22 13 0 19 39 18 46 -1
8 -19 110 -21 116 -3 3 9 81 13 309 14 167 1 401 4 519 8 424 12 1160 18 1160
9 0 -5 25 -9 54 -9 52 -1 55 0 58 25 l3 26 165 -3 165 -4 52 -57 c38 -43 74
-69 137 -101 47 -24 86 -47 86 -52 0 -4 5 -8 10 -8 6 0 10 7 10 15 0 8 -3 14
-7 14 -20 -3 -24 2 -13 16 10 12 9 15 -4 15 -9 0 -19 7 -22 15 -4 8 -10 12
-16 9 -5 -3 -1 -12 9 -20 16 -12 16 -13 1 -14 -25 0 -55 44 -73 108 -9 31 -19
65 -21 75 -3 10 -8 16 -11 14 -6 -7 27 -128 40 -145 15 -19 -12 -11 -37 11
-11 9 -23 17 -28 17 -4 0 -8 7 -8 16 0 8 -4 13 -8 10 -5 -3 -16 3 -24 13 -12
14 -13 22 -5 31 9 8 7 9 -7 4 -15 -6 -17 -4 -11 6 6 9 4 11 -5 5 -20 -12 -31
17 -12 33 9 7 11 11 4 7 -7 -4 -18 -2 -25 3 -8 7 -18 6 -32 -4z m30 -4 c3 -5
-1 -10 -10 -10 -9 0 -13 5 -10 10 3 6 8 10 10 10 2 0 7 -4 10 -10z m-382 -47
c-7 -2 -19 -2 -25 0 -7 3 -2 5 12 5 14 0 19 -2 13 -5z m-2106 -29 c-3 -3 -12
-4 -19 -1 -8 3 -5 6 6 6 11 1 17 -2 13 -5z m-357 -8 c0 -3 -4 -8 -10 -11 -5
-3 -10 -1 -10 4 0 6 5 11 10 11 6 0 10 -2 10 -4z"/>
<path d="M4785 501 c-3 -5 -1 -12 5 -16 5 -3 10 1 10 9 0 18 -6 21 -15 7z"/>
<path d="M1485 490 c-3 -5 -1 -10 4 -10 6 0 11 5 11 10 0 6 -2 10 -4 10 -3 0
-8 -4 -11 -10z"/>
<path d="M1460 460 c0 -5 5 -10 11 -10 5 0 7 5 4 10 -3 6 -8 10 -11 10 -2 0
-4 -4 -4 -10z"/>
<path d="M4760 451 c0 -6 4 -13 10 -16 6 -3 7 1 4 9 -7 18 -14 21 -14 7z"/>
<path d="M1336 437 c3 -10 9 -15 12 -12 3 3 0 11 -7 18 -10 9 -11 8 -5 -6z"/>
<path d="M1403 435 c6 -7 15 -11 20 -8 13 8 7 19 -13 20 -16 1 -17 -1 -7 -12z"/>
<path d="M5630 440 c14 -9 13 -11 -9 -14 -5 0 -13 -5 -18 -10 -5 -5 -3 -6 5
-2 7 4 12 2 12 -5 0 -7 6 -4 14 6 15 21 12 35 -7 35 -7 0 -6 -4 3 -10z"/>
<path d="M506 426 c21 -15 30 -14 19 3 -3 6 -14 11 -23 11 -13 0 -13 -2 4 -14z"/>
<path d="M1445 421 c-9 -30 -35 -48 -45 -32 -6 11 -11 9 -19 -8 -7 -11 -9 -21
-6 -21 3 0 -4 -9 -15 -20 -12 -12 -25 -18 -30 -15 -6 3 -7 -1 -3 -10 3 -10 0
-21 -8 -25 -7 -5 -11 -12 -7 -15 3 -4 23 10 44 30 43 42 133 105 150 105 6 0
17 6 23 14 9 11 6 14 -14 14 -14 0 -28 -5 -31 -10 -3 -5 -11 -4 -19 2 -10 8
-15 6 -20 -9z"/>
<path d="M4690 430 c0 -5 5 -10 10 -10 6 0 10 5 10 10 0 6 -4 10 -10 10 -5 0
-10 -4 -10 -10z"/>
<path d="M1375 420 c-3 -5 -1 -10 4 -10 6 0 11 5 11 10 0 6 -2 10 -4 10 -3 0
-8 -4 -11 -10z"/>
<path d="M1310 400 c0 -5 5 -10 10 -10 6 0 10 5 10 10 0 6 -4 10 -10 10 -5 0
-10 -4 -10 -10z"/>
<path d="M4710 398 c0 -7 5 -20 10 -28 8 -12 10 -11 10 7 0 12 -4 25 -10 28
-5 3 -10 0 -10 -7z"/>
<path d="M5570 388 c-12 -22 -12 -22 6 -6 10 10 15 20 12 24 -4 3 -12 -5 -18
-18z"/>
<path d="M5580 365 c-8 -9 -8 -15 -2 -15 12 0 26 19 19 26 -2 2 -10 -2 -17
-11z"/>
<path d="M4790 359 c0 -5 5 -7 10 -4 6 3 10 8 10 11 0 2 -4 4 -10 4 -5 0 -10
-5 -10 -11z"/>
<path d="M1290 339 c0 -5 5 -7 10 -4 6 3 10 8 10 11 0 2 -4 4 -10 4 -5 0 -10
-5 -10 -11z"/>
<path d="M5531 341 c-8 -5 -9 -11 -3 -15 5 -3 12 1 16 9 6 17 6 18 -13 6z"/>
<path d="M600 336 c0 -2 7 -7 16 -10 8 -3 12 -2 9 4 -6 10 -25 14 -25 6z"/>
<path d="M1206 310 c-50 -38 -54 -43 -31 -34 19 7 86 64 75 64 -3 0 -22 -14
-44 -30z"/>
<path d="M1420 330 c-9 -6 -10 -10 -3 -10 6 0 15 5 18 10 8 12 4 12 -15 0z"/>
<path d="M5560 324 c0 -8 5 -12 10 -9 6 3 10 10 10 16 0 5 -4 9 -10 9 -5 0
-10 -7 -10 -16z"/>
<path d="M1260 315 c-8 -9 -8 -15 -2 -15 12 0 26 19 19 26 -2 2 -10 -2 -17
-11z"/>
<path d="M5505 312 c-17 -13 -59 -62 -52 -62 3 0 19 12 34 28 15 15 31 26 36
24 5 -1 6 2 2 8 -7 12 -7 12 -20 2z"/>
<path d="M1390 300 c-12 -8 -10 -10 8 -10 13 0 20 4 17 10 -7 12 -6 12 -25 0z"/>
<path d="M1433 289 c-2 -23 3 -25 10 -4 4 8 3 16 -1 19 -4 3 -9 -4 -9 -15z"/>
<path d="M4900 299 c0 -5 5 -7 10 -4 6 3 10 8 10 11 0 2 -4 4 -10 4 -5 0 -10
-5 -10 -11z"/>
<path d="M640 296 c0 -2 7 -9 15 -16 9 -7 15 -8 15 -2 0 5 -7 12 -15 16 -8 3
-15 4 -15 2z"/>
<path d="M1470 285 l-25 -14 35 -1 c29 -1 31 -3 15 -10 -19 -8 -19 -9 3 -9 12
-1 22 4 22 9 0 6 14 10 30 10 31 0 43 19 13 21 -10 0 -26 2 -36 4 -9 2 -15 -1
-11 -6 3 -5 -2 -9 -11 -9 -9 0 -13 5 -10 10 8 13 5 12 -25 -5z"/>
<path d="M1608 273 c12 -2 32 -2 45 0 12 2 2 4 -23 4 -25 0 -35 -2 -22 -4z"/>
<path d="M1714 263 c-17 -17 -17 -18 1 -21 9 -2 21 2 26 10 20 31 1 39 -27 11z"/>
<path d="M1778 273 c-10 -3 -18 -12 -18 -22 0 -14 9 -18 40 -19 22 -1 40 3 40
8 0 6 7 10 15 10 9 0 12 -6 8 -17 -6 -14 0 -15 42 -10 26 4 56 7 67 7 11 0 16
5 13 10 -3 6 4 10 17 9 13 0 17 -3 11 -6 -7 -2 -13 -9 -13 -14 0 -12 37 -12
45 1 3 6 1 10 -5 10 -6 0 -9 4 -6 8 7 12 -80 31 -96 21 -10 -7 -9 -9 5 -9 9 0
17 -4 17 -10 0 -5 -19 -10 -42 -9 -37 1 -39 2 -18 9 22 7 21 8 -12 9 -23 1
-38 6 -39 14 0 6 -4 2 -9 -10 -10 -24 -25 -28 -57 -16 -16 6 -15 8 7 13 14 3
20 8 15 11 -6 3 -18 4 -27 2z"/>
<path d="M1610 260 c-53 -5 -63 -7 -35 -9 56 -4 97 -1 115 10 8 4 11 8 5 7 -5
-1 -44 -4 -85 -8z"/>
<path d="M2785 260 c-17 -7 -17 -9 -2 -9 9 -1 17 -5 17 -11 0 -5 16 -10 36
-10 21 0 33 -4 29 -10 -9 -15 5 -12 22 5 11 11 19 13 28 5 8 -6 30 -8 54 -4
34 5 39 9 30 21 -10 11 -14 11 -28 0 -17 -15 -51 -19 -51 -6 0 4 10 10 23 12
12 2 3 5 -20 6 -24 0 -43 -4 -43 -9 0 -6 -16 -9 -37 -6 -21 2 -37 9 -35 15 1
6 1 11 0 10 -2 0 -12 -4 -23 -9z"/>
<path d="M528 233 c3 -16 7 -23 9 -16 4 10 7 10 18 0 7 -7 11 -15 8 -19 -2 -4
3 -5 11 -2 13 5 13 8 -2 23 -9 9 -24 22 -33 29 -14 11 -16 9 -11 -15z"/>
<path d="M2069 251 c8 -5 10 -14 6 -21 -6 -10 11 -11 80 -5 62 5 85 4 81 -4
-5 -8 0 -8 16 -3 13 5 42 7 64 4 24 -2 45 1 48 7 4 7 -1 11 -13 11 -11 0 -23
5 -26 10 -3 5 -25 9 -48 8 l-42 -1 45 -7 c39 -7 35 -7 -30 -7 -41 0 -80 4 -87
9 -7 6 -20 8 -30 5 -14 -4 -13 -5 5 -6 36 -2 25 -16 -13 -16 -35 0 -46 9 -22
18 6 3 -1 6 -18 6 -21 0 -26 -2 -16 -8z"/>
<path d="M2403 253 c9 -2 25 -2 35 0 9 3 1 5 -18 5 -19 0 -27 -2 -17 -5z"/>
<path d="M2468 253 c22 -9 2 -23 -33 -23 -21 0 -35 -6 -39 -16 -5 -13 -4 -14
7 -5 8 6 45 13 82 15 54 4 69 8 71 21 2 13 0 14 -12 4 -10 -8 -14 -8 -14 0 0
6 -16 11 -37 10 -21 0 -32 -3 -25 -6z"/>
<path d="M2618 253 c18 -2 45 -2 60 0 15 2 0 4 -33 4 -33 0 -45 -2 -27 -4z"/>
<path d="M2728 253 c6 -2 18 -2 25 0 6 3 1 5 -13 5 -14 0 -19 -2 -12 -5z"/>
<path d="M3030 249 c-11 -8 -12 -12 -2 -16 6 -2 9 -10 5 -16 -4 -7 1 -5 11 3
11 8 14 16 7 18 -6 2 -9 8 -5 13 7 12 3 11 -16 -2z"/>
<path d="M3068 253 c6 -2 18 -2 25 0 6 3 1 5 -13 5 -14 0 -19 -2 -12 -5z"/>
<path d="M3156 244 c-3 -8 -1 -16 4 -19 14 -8 39 6 34 19 -6 17 -32 16 -38 0z"/>
<path d="M3213 248 c3 -16 19 -28 29 -22 4 3 5 11 1 19 -6 18 -34 20 -30 3z"/>
<path d="M3272 240 c0 -14 2 -19 5 -12 2 6 2 18 0 25 -3 6 -5 1 -5 -13z"/>
<path d="M3378 253 c15 -3 22 -10 18 -18 -7 -20 10 -28 45 -20 20 5 29 12 27
23 -4 21 -28 28 -28 8 0 -20 -7 -20 -26 -1 -9 8 -25 14 -37 14 -21 -2 -21 -2
1 -6z"/>
<path d="M3490 239 c-10 -18 -9 -20 7 -17 10 2 19 11 21 21 5 24 -15 21 -28
-4z"/>
<path d="M3537 241 c3 -12 10 -21 15 -21 13 0 6 32 -9 37 -7 3 -9 -3 -6 -16z"/>
<path d="M3667 249 c-10 -6 -27 -9 -37 -6 -13 3 -17 0 -13 -9 6 -17 47 -11 69
10 18 18 8 20 -19 5z"/>
<path d="M3750 257 c0 -2 8 -14 19 -26 17 -19 20 -20 32 -5 10 13 10 17 -2 25
-13 8 -49 13 -49 6z"/>
<path d="M3920 253 c0 -5 -20 -8 -45 -7 -27 2 -43 -1 -40 -7 4 -5 24 -9 46 -9
22 0 38 -4 34 -9 -3 -5 0 -13 6 -17 8 -4 9 -3 5 4 -5 8 4 12 28 12 24 0 36 -5
39 -17 4 -17 5 -17 6 0 1 10 9 17 22 17 12 0 19 5 16 13 -2 8 -19 11 -46 9
-23 -2 -49 2 -57 9 -8 6 -14 7 -14 2z"/>
<path d="M4585 252 c-4 -4 -30 -7 -58 -7 -29 0 -54 -4 -57 -10 -3 -6 11 -9 35
-8 25 0 29 -1 13 -4 -16 -2 -28 -9 -28 -15 0 -5 7 -7 16 -4 9 3 25 6 35 6 11
0 18 4 15 8 -3 5 8 6 25 4 16 -2 29 -8 29 -13 0 -5 5 -9 10 -9 6 0 10 6 10 13
0 16 -36 47 -45 39z"/>
<path d="M660 240 c0 -5 5 -10 11 -10 5 0 7 5 4 10 -3 6 -8 10 -11 10 -2 0 -4
-4 -4 -10z"/>
<path d="M4065 234 c-14 -10 -14 -12 0 -18 8 -3 15 -1 15 4 0 9 65 4 82 -6 4
-2 9 0 13 6 8 13 51 13 76 0 13 -7 19 -7 19 0 0 14 37 13 43 -2 3 -8 6 -6 6 5
1 19 5 18 -136 21 -63 0 -109 -3 -118 -10z"/>
<path d="M4415 241 c-8 -15 3 -31 21 -31 9 0 14 7 12 17 -4 20 -24 28 -33 14z"/>
<path d="M4910 240 c0 -5 5 -10 10 -10 6 0 10 5 10 10 0 6 -4 10 -10 10 -5 0
-10 -4 -10 -10z"/>
<path d="M5475 240 c-3 -5 -1 -10 4 -10 6 0 11 5 11 10 0 6 -2 10 -4 10 -3 0
-8 -4 -11 -10z"/>
<path d="M1250 230 c0 -5 5 -10 10 -10 6 0 10 5 10 10 0 6 -4 10 -10 10 -5 0
-10 -4 -10 -10z"/>
<path d="M2570 231 c0 -6 9 -9 20 -8 11 1 20 5 20 9 0 4 -9 8 -20 8 -11 0 -20
-4 -20 -9z"/>
<path d="M2705 230 c-3 -5 -1 -10 4 -10 6 0 11 5 11 10 0 6 -2 10 -4 10 -3 0
-8 -4 -11 -10z"/>
<path d="M2745 230 c3 -5 13 -10 21 -10 8 0 12 5 9 10 -3 6 -13 10 -21 10 -8
0 -12 -4 -9 -10z"/>
<path d="M3104 225 c10 -8 15 -19 10 -26 -4 -8 -3 -10 4 -5 22 13 14 46 -10
46 -22 -1 -22 -1 -4 -15z"/>
<path d="M3705 230 c3 -5 13 -10 21 -10 8 0 14 5 14 10 0 6 -9 10 -21 10 -11
0 -17 -4 -14 -10z"/>
<path d="M4352 226 c9 -10 18 -11 31 -5 25 14 21 19 -13 19 -26 0 -29 -2 -18
-14z"/>
<path d="M375 220 c-3 -5 1 -11 9 -11 58 -5 76 -3 76 9 0 6 -9 12 -19 12 -11
0 -21 -6 -24 -12 -3 -10 -7 -10 -19 0 -11 9 -18 10 -23 2z"/>
<path d="M4831 221 c7 -19 49 -47 49 -32 0 6 -4 11 -9 11 -5 0 -17 8 -27 17
-12 12 -16 13 -13 4z"/>
<path d="M303 203 c-4 -10 -13 -23 -21 -28 -11 -9 -9 -11 7 -12 15 -1 21 4 21
18 0 11 4 17 10 14 6 -3 7 1 4 9 -8 21 -13 20 -21 -1z"/>
<path d="M338 195 c2 -14 9 -25 16 -25 6 -1 29 -3 51 -6 29 -4 36 -2 25 5 -10
7 -11 11 -2 11 6 0 12 4 12 8 0 5 -8 9 -17 9 -50 -1 -74 4 -68 13 3 6 0 10 -8
10 -10 0 -13 -8 -9 -25z"/>
<path d="M722 200 c0 -14 2 -19 5 -12 2 6 2 18 0 25 -3 6 -5 1 -5 -13z"/>
<path d="M1016 211 c-3 -4 6 -6 19 -3 14 2 25 6 25 8 0 8 -39 4 -44 -5z"/>
<path d="M1723 213 c9 -2 23 -2 30 0 6 3 -1 5 -18 5 -16 0 -22 -2 -12 -5z"/>
<path d="M1930 214 c0 -4 8 -13 18 -20 16 -12 15 -13 -5 -14 -13 0 -23 -5 -23
-11 0 -6 7 -8 16 -5 9 3 23 6 31 6 9 0 13 3 10 7 -4 3 1 12 10 19 15 11 14 11
-10 7 -16 -3 -27 -1 -27 6 0 6 -4 11 -10 11 -5 0 -10 -3 -10 -6z"/>
<path d="M3340 210 c0 -5 4 -10 9 -10 6 0 13 5 16 10 3 6 -1 10 -9 10 -9 0
-16 -4 -16 -10z"/>
<path d="M3865 210 c3 -5 8 -10 11 -10 2 0 4 5 4 10 0 6 -5 10 -11 10 -5 0 -7
-4 -4 -10z"/>
<path d="M3080 199 c0 -5 5 -7 10 -4 6 3 10 8 10 11 0 2 -4 4 -10 4 -5 0 -10
-5 -10 -11z"/>
<path d="M4965 200 c-3 -5 1 -10 10 -10 9 0 13 5 10 10 -3 6 -8 10 -10 10 -2
0 -7 -4 -10 -10z"/>
<path d="M230 193 c0 -4 5 -15 10 -23 8 -13 10 -13 10 2 0 9 -4 20 -10 23 -5
3 -10 3 -10 -2z"/>
<path d="M1615 190 c-4 -7 -2 -16 6 -21 18 -11 23 -4 11 17 -7 12 -11 13 -17
4z"/>
<path d="M1775 189 c-9 -14 0 -22 18 -17 13 2 13 5 2 15 -10 9 -16 9 -20 2z"/>
<path d="M1830 180 c6 -11 18 -20 28 -21 14 0 14 -2 -3 -9 -18 -8 -18 -9 5 -9
15 -1 30 7 38 19 13 22 9 24 -35 20 -13 -1 -23 3 -23 9 0 6 -5 11 -10 11 -7 0
-7 -6 0 -20z"/>
<path d="M2008 178 c-2 -14 -12 -25 -28 -29 -21 -6 -19 -7 13 -8 21 -1 36 3
32 8 -3 5 -1 12 4 15 13 8 42 -4 36 -14 -3 -5 9 -2 26 7 29 14 30 17 13 26
-12 7 -19 7 -21 0 -4 -12 -41 -6 -60 9 -8 6 -12 2 -15 -14z"/>
<path d="M2240 190 c0 -5 -9 -10 -20 -10 -11 0 -20 -4 -20 -10 0 -18 39 -10
50 10 7 14 7 20 0 20 -5 0 -10 -4 -10 -10z"/>
<path d="M2736 185 c-11 -8 -16 -18 -12 -22 3 -4 16 3 29 15 24 25 12 29 -17
7z"/>
<path d="M3400 190 c-11 -7 -6 -10 20 -10 26 0 31 3 20 10 -8 5 -17 10 -20 10
-3 0 -12 -5 -20 -10z"/>
<path d="M4070 190 c-9 -6 -10 -10 -3 -10 6 0 15 5 18 10 8 12 4 12 -15 0z"/>
<path d="M4126 185 c4 -10 0 -15 -14 -15 -11 0 -31 -6 -46 -13 -24 -13 -21
-14 36 -13 34 0 55 2 45 4 -13 3 -15 10 -11 28 4 14 2 24 -5 24 -6 0 -8 -7 -5
-15z"/>
<path d="M488 183 c6 -2 18 -2 25 0 6 3 1 5 -13 5 -14 0 -19 -2 -12 -5z"/>
<path d="M2408 183 c7 -3 16 -2 19 1 4 3 -2 6 -13 5 -11 0 -14 -3 -6 -6z"/>
<path d="M2546 174 c-6 -16 2 -18 22 -5 11 7 11 9 -1 14 -9 3 -18 -1 -21 -9z"/>
<path d="M2825 180 c-4 -6 -13 -9 -20 -8 -8 2 -14 0 -14 -4 -1 -9 5 -9 37 -1
12 3 22 9 22 14 0 12 -17 11 -25 -1z"/>
<path d="M4200 180 c-12 -8 -12 -10 2 -15 10 -4 22 -4 28 0 5 3 10 -1 10 -9 0
-9 5 -16 11 -16 16 0 6 21 -17 36 -12 9 -24 10 -34 4z"/>
<path d="M1465 170 c-38 -3 -51 -7 -35 -10 30 -6 119 3 105 10 -5 3 -37 3 -70
0z"/>
<path d="M1547 160 c-9 -11 -12 -20 -6 -20 5 0 19 9 31 20 16 14 18 20 7 20
-8 0 -22 -9 -32 -20z"/>
<path d="M1650 174 c0 -3 7 -12 15 -20 13 -14 15 -14 15 -1 0 12 9 14 40 10
24 -4 40 -2 40 5 0 5 -24 10 -55 11 -30 0 -55 -2 -55 -5z"/>
<path d="M2130 158 c0 -21 0 -21 15 -2 8 10 15 14 15 7 0 -7 7 -10 17 -6 15 6
15 7 -3 14 -33 13 -44 10 -44 -13z"/>
<path d="M2650 170 c-11 -7 -7 -10 18 -10 17 0 32 5 32 10 0 13 -30 13 -50 0z"/>
<path d="M2918 173 c7 -3 16 -2 19 1 4 3 -2 6 -13 5 -11 0 -14 -3 -6 -6z"/>
<path d="M3020 170 c0 -5 5 -10 10 -10 6 0 10 5 10 10 0 6 -4 10 -10 10 -5 0
-10 -4 -10 -10z"/>
<path d="M3075 170 c-3 -5 -1 -10 4 -10 6 0 11 5 11 10 0 6 -2 10 -4 10 -3 0
-8 -4 -11 -10z"/>
<path d="M3130 164 c0 -8 5 -12 10 -9 6 3 10 10 10 16 0 5 -4 9 -10 9 -5 0
-10 -7 -10 -16z"/>
<path d="M3210 170 c-12 -8 -11 -10 7 -10 12 0 25 5 28 10 8 13 -15 13 -35 0z"/>
<path d="M3633 173 c15 -2 37 -2 50 0 12 2 0 4 -28 4 -27 0 -38 -2 -22 -4z"/>
<path d="M3766 164 c-9 -24 -7 -27 9 -10 17 17 19 26 6 26 -5 0 -12 -7 -15
-16z"/>
<path d="M3813 165 c-18 -20 -16 -23 10 -21 17 1 23 6 19 19 -5 20 -13 21 -29
2z"/>
<path d="M3855 170 c-3 -5 1 -10 9 -10 9 0 16 5 16 10 0 6 -4 10 -9 10 -6 0
-13 -4 -16 -10z"/>
<path d="M3905 170 c-7 -11 58 -19 70 -9 10 10 7 11 -38 14 -15 1 -30 -1 -32
-5z"/>
<path d="M4021 171 c-8 -5 -10 -14 -6 -21 6 -9 10 -8 17 4 12 21 7 28 -11 17z"/>
<path d="M4328 173 c6 -2 18 -2 25 0 6 3 1 5 -13 5 -14 0 -19 -2 -12 -5z"/>
<path d="M4540 170 c-13 -8 -12 -10 3 -10 9 0 17 5 17 10 0 12 -1 12 -20 0z"/>
<path d="M4890 172 c0 -13 39 -32 45 -22 3 6 -1 10 -9 10 -9 0 -16 5 -16 10 0
6 -4 10 -10 10 -5 0 -10 -3 -10 -8z"/>
<path d="M450 160 c0 -5 14 -10 31 -10 17 0 28 4 24 10 -3 6 -17 10 -31 10
-13 0 -24 -4 -24 -10z"/>
<path d="M2270 155 c12 -15 30 -12 30 6 0 5 -10 9 -21 9 -18 0 -19 -2 -9 -15z"/>
<path d="M2336 155 c4 -8 8 -15 10 -15 2 0 4 7 4 15 0 8 -4 15 -10 15 -5 0 -7
-7 -4 -15z"/>
<path d="M2408 163 c7 -3 16 -2 19 1 4 3 -2 6 -13 5 -11 0 -14 -3 -6 -6z"/>
<path d="M2445 160 c-3 -5 3 -10 14 -10 12 0 21 5 21 10 0 6 -6 10 -14 10 -8
0 -18 -4 -21 -10z"/>
<path d="M3383 163 c10 -9 137 -10 137 0 0 4 -32 7 -72 7 -39 0 -68 -3 -65 -7z"/>
<path d="M3543 163 c9 -2 25 -2 35 0 9 3 1 5 -18 5 -19 0 -27 -2 -17 -5z"/>
<path d="M536 145 c-3 -8 -1 -15 4 -15 6 0 10 7 10 15 0 8 -2 15 -4 15 -2 0
-6 -7 -10 -15z"/>
<path d="M1605 150 c-3 -5 -1 -10 4 -10 6 0 11 5 11 10 0 6 -2 10 -4 10 -3 0
-8 -4 -11 -10z"/>
<path d="M3005 150 c-4 -6 3 -10 14 -10 25 0 27 6 6 13 -8 4 -17 2 -20 -3z"/>
<path d="M1756 134 c-5 -13 -3 -14 6 -6 7 5 22 12 33 15 16 4 14 5 -6 6 -17 1
-29 -5 -33 -15z"/>
<path d="M3088 143 c7 -3 16 -2 19 1 4 3 -2 6 -13 5 -11 0 -14 -3 -6 -6z"/>
<path d="M3258 143 c6 -2 18 -2 25 0 6 3 1 5 -13 5 -14 0 -19 -2 -12 -5z"/>
<path d="M4328 143 c7 -3 16 -2 19 1 4 3 -2 6 -13 5 -11 0 -14 -3 -6 -6z"/>
<path d="M4610 136 c0 -8 -6 -17 -12 -19 -8 -4 -7 -6 3 -6 9 -1 19 8 22 19 3
11 1 20 -4 20 -5 0 -9 -6 -9 -14z"/>
<path d="M3528 133 c7 -3 16 -2 19 1 4 3 -2 6 -13 5 -11 0 -14 -3 -6 -6z"/>
<path d="M3578 133 c7 -3 16 -2 19 1 4 3 -2 6 -13 5 -11 0 -14 -3 -6 -6z"/>
<path d="M4013 123 c9 -2 25 -2 35 0 9 3 1 5 -18 5 -19 0 -27 -2 -17 -5z"/>
<path d="M4188 123 c7 -3 16 -2 19 1 4 3 -2 6 -13 5 -11 0 -14 -3 -6 -6z"/>
<path d="M4480 120 c0 -6 7 -10 15 -10 8 0 15 2 15 4 0 2 -7 6 -15 10 -8 3
-15 1 -15 -4z"/>
</g>
</svg>
